<?xml version="1.0" encoding="UTF-8"?>
<svg width="32px" height="32px" viewBox="0 0 32 32" version="1.1" xmlns="http://www.w3.org/2000/svg" xmlns:xlink="http://www.w3.org/1999/xlink">
    <!-- Generator: Sketch 51.1 (57501) - http://www.bohemiancoding.com/sketch -->
    <title>svg/color/abyss</title>
    <desc>Created with Sketch.</desc>
    <defs></defs>
    <g id="color/abyss" stroke="none" stroke-width="1" fill="none" fill-rule="evenodd">
        <circle id="Oval" fill="#3886EF" fill-rule="nonzero" cx="16" cy="16" r="16"></circle>
        <path d="M25.7790125,20.8134974 C26.1547171,21.4575625 26.1547171,22.2358079 25.7790125,22.879873 L24.1420137,20.0352521 L20.7875079,14.158158 L17.2719859,8.06637555 L15.9301836,10.3742755 L12.8708743,15.6609766 L11.2338755,18.5055975 L10.5629744,19.6595474 C10.4556302,19.8205637 10.4824662,19.8473998 10.32145,19.8742358 C10.2141058,19.8742358 10.1067616,19.8742358 9.99941742,19.8742358 L9.24800813,19.8742358 L10.8850069,17.0027789 L14.0248243,11.5550615 L17.0572975,6.29519651 C17.7550347,6.67090115 18.0770673,7.47598253 18.4527719,8.12004764 L19.2310173,9.46184994 L22.1829823,14.5606987 L25.7790125,20.8134974 Z M24.8129148,23.2555776 L25.0276032,23.6849543 C24.329866,24.1143311 23.4174404,23.9801509 22.6123591,23.9801509 L8.36241861,23.9801509 C7.53050118,23.9801509 6.77909189,23.7117904 6.32287911,22.9603811 L23.4442765,22.9603811 L22.1293102,20.6524811 L19.070001,15.338944 L17.4330022,12.4943231 L16.762101,11.3403732 C16.6547568,11.1793569 16.6279208,11.1793569 16.6815929,11.0183406 C16.735265,10.9378325 16.7889371,10.8304883 16.8426092,10.7499802 L17.2183138,10.105915 L18.8016405,12.8163557 L21.7536056,17.9420405 L24.8129148,23.2555776 Z M6.85960003,21.8869393 L6.85960003,21.8601032 L6.00084656,21.8601032 C5.97401051,21.0281858 6.59123957,20.2499405 6.99378026,19.5522033 L7.69151746,18.3177451 L10.911843,12.7626836 L13.3002511,8.62993251 C13.9443162,7.52965462 14.5078732,6 16.0106917,6 L14.3736929,8.84462088 L10.9655151,14.7753871 L7.44999304,20.8671695 L20.7875079,20.8671695 C20.9753603,20.8671695 21.0021963,20.8403335 21.1095405,20.9745137 C21.1632126,21.0550218 21.2168847,21.162366 21.2705568,21.2428742 L21.6462614,21.8869393 L6.85960003,21.8869393 Z M18.9089847,19.8742358 L18.9089847,19.8473998 L11.6095802,19.8473998 L12.4414976,18.3982533 L16.0375278,12.1454545 L16.8962813,13.594601 L20.4923114,19.8742358 L18.9089847,19.8742358 Z M13.5417755,18.5055975 L13.3807592,18.82763 L18.7479684,18.82763 L18.1844115,17.8615324 L16.0375278,14.2118301 L13.5417755,18.5055975 Z" id="Combined-Shape" fill="#FFFFFF" fill-rule="nonzero"></path>
    </g>
</svg>