<?xml version="1.0" encoding="UTF-8"?>
<svg width="32px" height="32px" viewBox="0 0 32 32" version="1.1" xmlns="http://www.w3.org/2000/svg" xmlns:xlink="http://www.w3.org/1999/xlink">
    <!-- Generator: Sketch 53.2 (72643) - https://sketchapp.com -->
    <title>svg/color/bchabc</title>
    <desc>Created with Sketch.</desc>
    <g id="color/bchabc" stroke="none" stroke-width="1" fill="none" fill-rule="evenodd">
        <circle id="Oval" fill="#F3A00F" fill-rule="nonzero" cx="16" cy="16" r="16"></circle>
        <path d="M18.7172443,14.6814565 C18.6706073,15.2181883 18.2043896,15.1842172 18.2043896,15.1842172 L14.6544245,15.1842172 L14.8941776,14.2516243 L18.290943,14.2516243 C18.290943,14.2516243 18.7544623,14.252819 18.7172443,14.6814565 Z M18.2377381,17.5844727 C18.1911011,18.1212564 17.7248833,18.0872854 17.7248833,18.0872854 L14.1749183,18.0872854 L14.4146714,17.1546405 L17.8114368,17.1546405 C17.8114368,17.1546405 18.2749561,17.1558352 18.2377381,17.5844727 Z M23.6453951,14.2330286 L28.5458489,14.211472 L29,12.0587791 L24.0847813,12.0587791 C24.0847813,12.0587791 22.2467929,12.0587791 21.1012323,13.0779618 C20.528452,12.0587791 18.943658,12.0587791 18.943658,12.0587791 L17.7834342,12.0587791 L18.2043896,10 L17.0122937,10 L16.5913384,12.0587791 L15.3259267,12.0587791 L15.7469329,10 L14.5548371,10 L14.1338309,12.0587791 L12.8898539,12.0587791 L12.1705945,15.8093568 L11.3714005,12.0587791 L8.35450303,12.0587791 L3,20.239355 L7.43545794,20.239355 L8.05482438,18.1276974 L7.0358864,18.1228667 L9.55326857,14.1990575 L10.4923228,18.1228667 L9.57332861,18.1398522 L9.19366436,20.239355 L12.4610069,20.239355 L12.1705945,21.6594373 L13.3626904,21.6594373 L13.6531027,20.239355 L14.9184635,20.239355 L14.6281021,21.6594373 L15.8201979,21.6594373 L16.1105593,20.239355 L17.585074,20.239355 C17.585074,20.239355 19.1301044,20.239355 19.889331,19.2066151 C20.7153057,20.239355 22.073686,20.239355 22.073686,20.239355 L27.2750403,20.239355 L27.7261366,18.0992843 L23.1128367,18.1194903 C23.1128367,18.1194903 20.8028774,18.0440165 21.4637386,15.8297186 C21.940801,14.2330286 23.6453951,14.2330286 23.6453951,14.2330286 L23.6453951,14.2330286 Z" id="Fill-4" fill="#FFFFFF"></path>
    </g>
</svg>