<?xml version="1.0" encoding="UTF-8"?>
<svg width="32px" height="32px" viewBox="0 0 32 32" version="1.1" xmlns="http://www.w3.org/2000/svg" xmlns:xlink="http://www.w3.org/1999/xlink">
    <!-- Generator: Sketch 53.2 (72643) - https://sketchapp.com -->
    <title>svg/color/bchsv</title>
    <desc>Created with Sketch.</desc>
    <g id="color/bchsv" stroke="none" stroke-width="1" fill="none" fill-rule="evenodd">
        <circle id="Oval" fill="#E3AC02" fill-rule="nonzero" cx="16" cy="16" r="16"></circle>
        <path d="M16.9986777,14.5651037 C17.2275429,14.6220668 17.4483322,14.6413029 17.3873448,14.2857377 C17.3346654,14.0016209 17.5378175,14.0547647 17.6436868,14.1293803 C17.836628,14.2654303 17.9835268,14.4367388 18.0161556,14.0258873 C18.0289657,13.8647791 18.1507085,13.9195531 18.2247845,13.9722777 C18.492405,14.1627291 18.7292998,14.3852717 18.8606037,14.6964961 C18.9123084,14.8190855 18.6070929,15.2956099 18.459962,15.2735792 C18.21889,15.2374358 18.1547929,15.3497318 18.0945481,15.5404161 C18.0163876,15.7879237 17.8809529,15.8691532 17.7228219,15.5952832 C17.6502311,15.4695732 17.571096,15.4396245 17.4276317,15.4541098 C17.0590153,15.4914642 16.6830656,15.0545298 16.7333779,14.6715776 C16.7596943,14.4711589 16.873454,14.533944 16.9986777,14.5651037 Z M9.44603263,10.8699086 C10.0720586,11.2201175 10.0689953,11.196084 9.63642102,11.7707452 C9.01731066,12.5930537 8.64976175,13.5444258 8.29957151,14.5015267 C8.14102282,14.9349213 7.99806908,15.3756749 7.74414054,15.7651012 C7.36224984,16.3506613 6.57697898,16.573856 5.94983908,16.2836377 C5.77411737,16.2023151 5.62243789,16.0924876 5.53448421,15.911631 C5.42773304,15.6923021 5.50218038,15.6093959 5.73383041,15.6444215 C5.73387682,15.6444215 5.73387682,15.6444215 5.73392324,15.6444215 C5.89674197,15.8055762 6.07942571,15.8364099 6.2784006,15.7671506 C6.28067487,15.7678493 6.28299554,15.768315 6.28526981,15.7690602 C6.2831812,15.7681753 6.28099976,15.7678027 6.27891115,15.7670109 C6.31520655,15.7543421 6.35187325,15.7394842 6.38928258,15.7202481 C6.16997855,15.6729729 5.95076735,15.6256977 5.73150973,15.5784691 C4.99729377,15.1391593 4.78123869,14.2851788 5.24170753,13.6289156 C5.31736162,13.5210444 5.3957541,13.3544867 5.54251375,13.4026003 C5.65901176,13.440793 5.62991047,13.6132193 5.64109613,13.7342251 C5.72227343,14.6113542 6.48396622,15.0935609 7.2596759,14.7589552 C7.2908658,14.7454946 7.31430465,14.7136828 7.35101777,14.6821039 C7.13895425,14.5524349 6.91760803,14.610609 6.70689051,14.5983593 C6.03403326,14.5591885 5.66416367,13.9035308 5.97894037,13.3133596 C6.10142573,13.0836442 6.19541317,12.9946365 6.40905475,13.2510402 C6.71770486,13.6214168 7.03907229,13.6654316 7.5227479,13.4518782 C7.17993742,13.2064199 6.40933323,13.5826651 6.50202109,12.7195555 C6.66999173,12.7974315 6.7990214,12.8777294 6.92141394,12.6379535 C7.04756597,12.390865 7.40276887,12.463012 7.58378172,12.7335285 C7.70241476,12.9107987 7.68733036,13.1205328 7.73643589,13.3608211 C7.96367664,13.2238396 8.04011976,13.0053491 8.13665994,12.8097277 C8.42470244,12.2260773 8.60144524,11.594453 8.91417975,11.0191864 C9.05917568,10.7524892 9.18166104,10.7220748 9.44603263,10.8699086 Z M10.6627175,8.89953541 C10.3808944,8.75915377 10.410599,8.6608773 10.6121731,8.48276868 C10.7832999,8.33148813 10.9493211,8.16833057 11.068836,7.91718996 C10.7460762,7.98612321 10.7098272,7.86032002 10.8493928,7.6256675 C11.0101693,7.35533736 11.2638658,7.30149489 11.550191,7.31523497 C11.9703264,7.3354026 12.3526813,7.24411262 12.66342,6.93810486 C12.6221119,6.75091381 12.3900906,6.91425768 12.3478078,6.71230187 C12.6494495,6.52026687 12.975087,6.44593074 13.3263447,6.57299149 C13.579902,6.66470067 13.8210668,6.68826839 14.063624,6.55007584 C14.0756915,6.38784981 13.8465014,6.43377427 13.8492398,6.28631299 C14.4912784,5.83405495 15.1104352,6.46991765 15.7423557,6.35207904 C15.7982376,6.18780365 15.5411066,6.19143662 15.6145328,6.03861904 C16.2740694,5.84849367 16.7239095,6.41463131 17.2831464,6.55920484 C17.4104123,6.39553494 17.1530956,6.22259631 17.3295599,6.13191182 C17.4668976,6.06130181 17.6099906,6.18673239 17.7452861,6.24006251 C17.9752188,6.330747 18.1782317,6.4517528 18.3046622,6.68444911 C18.3529787,6.77331712 18.4550885,6.83889687 18.5442025,6.89744355 C18.6198566,6.94709413 18.7069285,7.03209628 18.8018906,6.98002373 C18.9144899,6.91821668 18.8107092,6.81001942 18.822359,6.7231542 C18.8310383,6.65827311 18.8303421,6.59218102 18.8358189,6.49031816 C19.4116718,6.74965625 19.6876932,7.34327404 20.1971283,7.60945887 C20.294736,7.54387912 20.262293,7.49683683 20.2410356,7.44662734 C20.1974068,7.34341377 20.0020986,7.26218431 20.1118202,7.1487239 C20.234909,7.02138368 20.3883986,7.15887758 20.5125548,7.22632039 C20.7430909,7.35161123 20.7748378,7.62957992 20.9347325,7.81127494 C20.9347789,7.81127494 20.9347789,7.81127494 20.9347789,7.81127494 C20.951627,7.87513135 20.9786397,7.9430865 21.0517411,7.94015218 C21.1373276,7.93670552 21.0951841,7.86022687 21.0884542,7.82156835 C21.0627411,7.67433996 21.1364458,7.63759109 21.2618552,7.64760504 C21.5622901,7.90834042 21.784379,8.23288563 22.000202,8.56241453 C22.1077886,8.72668993 22.1692865,8.90791918 22.136797,9.1033077 C22.0305564,9.74182525 22.0740923,10.4101052 21.7623325,11.0088464 C21.725573,11.0794564 21.6924801,11.1668806 21.6989316,11.2429866 C21.7594085,11.9586349 21.3272983,12.5325042 21.1302728,13.1706026 C20.9906608,13.6227209 20.5314916,13.925608 20.3649133,14.4918388 C20.2078963,14.186716 20.2575124,13.9572801 20.2682803,13.7420965 C20.2936221,13.2359029 20.267352,12.738419 20.1186894,12.2509957 C20.0750143,12.1076798 20.0487442,11.9737257 20.1434743,11.8250068 C20.4489219,11.3453152 20.3952678,10.8112688 20.328293,10.2852336 C20.2927867,10.0067525 20.1386008,9.78183449 19.8301828,9.79147583 C19.5213934,9.80121032 19.3180093,10.0074046 19.2989333,10.3099657 C19.271178,10.7493686 19.1275281,10.7174171 18.8274644,10.5047487 C17.7549865,9.74452669 16.5849009,9.60717253 15.3553131,10.0435945 C15.0647643,10.146715 14.822532,10.1411258 14.5495739,10.0059607 C13.8001807,9.63497871 12.9818634,9.50461102 12.1694406,9.3602238 C11.648402,9.26762967 11.1430513,9.13884558 10.6627175,8.89953541 Z M26.9343337,12.9301746 C26.9837642,13.0080971 27.0368613,13.0966391 26.9648274,13.1932854 C26.8894983,13.294403 26.8071142,13.2563965 26.7142871,13.2157818 C26.6420676,13.1841564 26.557827,13.1605886 26.4804556,13.1645011 C26.294198,13.1738629 26.0357674,13.1073517 25.9425226,13.2512266 C25.8278811,13.4280776 26.1271557,13.4969177 26.1907422,13.649549 C26.1958941,13.6617986 26.2075439,13.6710673 26.2136705,13.6830375 C26.3460884,13.9414441 26.6093461,14.2330131 26.3417255,14.4784714 C26.2433752,14.5686901 25.9145816,14.3034834 25.7299485,14.1347832 C25.6501172,14.0618909 25.5852311,13.9719517 25.5027078,13.902739 C25.1165934,13.5789855 24.9107493,13.6431214 24.8369518,14.1465671 C24.7945762,14.4357141 24.66796,14.3743263 24.5145633,14.2828965 C24.2382634,14.1181554 24.131373,13.6752126 24.2878795,13.3851341 C24.3271453,13.3123815 24.4676856,13.2572349 24.347985,13.1575612 C24.2921959,13.1110778 24.1961663,13.0834113 24.1242717,13.0927732 C23.9990944,13.1091682 24.0112083,13.231385 24.0124615,13.3213242 C24.0239256,14.1505726 24.0449045,14.9837801 23.8241617,15.7911841 C23.0075617,18.7786489 21.1051166,20.6334658 18.0666535,21.2612707 C17.6025644,21.3571718 17.2286569,21.4788297 17.0217452,21.9559596 C16.9039477,22.2275473 16.6650107,22.429736 16.3824914,22.5549802 C16.2838162,22.543569 16.3088331,22.4564243 16.2838162,22.4020229 C16.2368921,22.3001601 16.2588457,22.1380272 16.0780185,22.151581 C15.9374319,22.1621073 15.9233221,22.2761732 15.89682,22.3844636 C15.8531913,22.5628517 15.7422165,22.6998798 15.6017691,22.8117566 C15.5234694,22.8741691 15.4037689,22.9270335 15.3703975,22.7983891 C15.2548742,22.3528381 15.0691736,22.6342535 14.817148,22.7481796 C15.2564058,22.9889803 15.5877058,23.245943 15.509174,23.7697425 C15.4606719,24.0930302 15.520731,24.4428664 15.2128235,24.7297778 C15.0815196,24.4305237 15.0634183,24.09657 14.697401,24.0248422 C14.5227004,23.9906084 14.4570717,23.6838554 14.2259322,23.791028 C13.9099487,23.9375577 13.5658851,24.0605198 13.4022309,24.4133369 C13.3395262,24.5485486 13.2587666,24.683341 13.2337497,24.826657 C13.162969,25.2320591 12.7486353,25.2924222 12.540981,25.594797 C12.0704869,24.8101689 12.2335841,24.1970356 12.9984794,23.7126863 C12.1074321,23.4920999 11.2093763,23.8213027 11.0087769,24.3986187 C10.5530886,23.9078885 10.6333377,23.402114 11.2004649,23.1065394 C11.5268449,22.936442 11.8897525,22.9001588 12.2443984,22.7706295 C11.7647144,22.6705366 11.487904,22.1848832 10.9590216,22.1642964 C10.7358652,22.1555865 10.9054139,21.9791081 10.9644519,21.9072405 C11.2220472,21.5938737 11.9515754,21.5118058 12.274428,21.7673712 C12.4922932,21.9398441 12.6860234,22.1430575 12.913589,22.3538162 C12.9121038,21.8733794 12.3720821,21.1834879 12.0071788,21.1474843 C12.2361832,20.8047276 12.4320948,20.7854915 13.0188085,20.993642 C13.4389904,21.1426869 13.4795094,21.6051452 13.8095098,21.9028158 C13.8879951,21.6589877 13.9595184,21.4460864 14.0248223,21.231322 C14.0806113,21.0476708 14.0237083,20.9353282 13.8356406,20.8513507 C13.2422434,20.5864235 12.6640234,20.2899639 12.1067359,19.9528896 C11.9117061,19.8349113 11.8989424,19.8451581 11.8719297,20.0647664 C11.8567989,20.187449 11.7694486,20.1765035 11.6979253,20.1710075 C11.4762542,20.1541002 11.274216,20.0935973 11.1383171,19.8922935 C10.9927642,19.6766442 10.8512493,19.4512139 10.8106374,19.197465 C10.7559623,18.855733 10.5761562,18.5970004 10.3657171,18.346279 C10.3656707,18.346279 10.3656707,18.346279 10.3656707,18.346279 C10.3656707,18.346279 10.3656707,18.346279 10.3656707,18.3462324 C10.3431137,18.2843788 10.2993458,18.199004 10.2387761,18.2560137 C10.1611262,18.3290457 10.2184934,18.4257386 10.2800841,18.5005405 C10.2838436,18.5908058 10.3306285,18.7013784 10.2028056,18.7412014 C10.0921557,18.7756214 10.0238349,18.6934138 9.9723623,18.6140474 C9.78420176,18.323736 9.72641689,17.9873603 9.63470371,17.6607192 C9.54429012,17.338363 9.63502861,16.9250896 9.16550913,16.7720857 C9.02399421,16.7259749 9.01424736,16.4657985 9.0003233,16.2903913 C8.97335703,15.9515005 9.03675794,15.6090233 9.02366932,15.2761409 C8.98468193,14.2820582 9.4017541,13.4144773 9.69434513,12.5095886 C9.97533276,11.6405172 11.2008826,11.2185805 11.9680057,11.7291523 C12.0522463,11.7852305 12.0906304,11.8412155 12.0304784,11.9222586 C11.7803558,12.2589603 11.7422038,12.7157828 11.4133638,13.0077711 C11.258621,13.1452184 11.2135999,13.286811 11.4068659,13.4390231 C11.6556426,13.634924 11.7087861,13.8946346 11.6711911,14.2034836 C11.637402,14.4813125 11.6606088,14.7617032 12.0239341,14.8312885 C12.1162042,14.8489876 12.1556093,14.9130769 12.1760313,14.9994764 C12.254563,15.3317067 12.4903439,15.5621208 12.6975804,15.8125627 C13.0366313,16.222343 13.4351381,16.3971447 13.9487969,16.1567167 C14.1451726,16.0647746 14.2312233,16.1209459 14.2788436,16.3401816 C14.436464,17.0652849 14.8140383,17.671851 15.3505789,18.1741788 C16.0826599,18.8595989 16.9358802,18.768076 17.4899651,17.9370577 C17.8141638,17.4507988 18.1199827,16.9528492 18.5609114,16.5611872 C18.6772238,16.4578805 18.8033294,16.2839171 18.9712536,16.3589053 C19.1445154,16.4363155 19.0168781,16.6247641 19.0261609,16.7644937 C19.0314056,16.8426025 19.0555871,16.9194538 19.0729921,17.0056669 C19.5332753,16.8142374 19.7182797,16.4780015 19.7440857,16.005343 C19.7546215,15.812423 19.8734866,15.6230428 19.9552673,15.4374354 C20.0034446,15.3280737 20.0496725,15.1733931 20.1754532,15.1653819 C20.3361369,15.1551817 20.265774,15.3268162 20.2989597,15.4172212 C20.3327951,15.509303 20.3869598,15.5418134 20.4841961,15.5180128 C20.6412596,15.4795872 20.7566901,15.4122375 20.7697787,15.2272821 C20.7917323,14.9161975 20.8163779,14.6049266 20.8542514,14.2954722 C20.8687788,14.1766555 20.9059561,14.0535537 20.9631376,13.9490826 C21.0223613,13.840699 21.1161166,13.7216494 21.2163235,13.9294273 C21.2478383,13.9948673 21.237813,14.1124265 21.3598806,14.075305 C21.4623617,14.0441453 21.4967542,13.9475456 21.5040411,13.8499678 C21.5293829,13.5116825 21.5413576,13.1721862 21.5751931,12.834879 C21.591902,12.6684145 21.5661424,12.4596585 21.8784128,12.6398631 C22.1069995,12.7717678 22.1128941,12.4999938 22.1048645,12.3577491 C22.0889447,12.0745638 21.9474762,11.7960362 22.0086956,11.5143414 C22.0430881,11.3561676 21.8332988,10.9604534 22.3153964,11.0936623 C22.3932783,11.115134 22.3862235,10.9655303 22.3826032,10.8904023 C22.3694682,10.6193735 22.33735,10.3489037 22.333312,10.0778749 C22.3304344,9.88169455 22.3286707,9.67387011 22.5622701,9.47526781 C22.8628442,10.7582181 23.856187,11.4031167 24.8253484,12.1482013 C24.8162049,11.6727482 24.8928801,11.2730285 25.4433912,11.1713053 C25.5175137,11.4593811 25.3138974,11.7480158 25.4420917,12.0507167 C25.6805645,11.915179 25.9352356,11.8480622 26.2125566,11.8748437 C26.4174724,11.8946387 26.5453882,11.9383741 26.3667888,12.1588674 C26.234371,12.3223509 26.2352064,12.410334 26.4702911,12.4883497 C26.6734896,12.5557925 26.8164897,12.7446137 26.9343337,12.9301746 Z M14.4146151,12.4854506 C14.3021358,12.5514336 14.0661443,12.4564652 14.0827164,12.6661968 C14.0957634,12.8306357 14.3001673,12.8824323 14.4474387,12.9396489 C14.5324506,12.9726876 14.6235968,12.9889476 14.7010551,13.0098265 C14.915805,12.9721691 15.108352,12.9228704 15.2089288,12.717145 C15.2630855,12.6063879 15.2251346,12.5034545 15.1351786,12.4266787 C14.9628202,12.2794895 14.7803903,12.2666229 14.588942,12.3908122 C14.5335493,12.4267729 14.4717017,12.4519407 14.4146151,12.4854506 Z M17.8564733,12.9250384 C17.6513828,12.7931668 17.4298118,12.8078244 17.1101819,12.8907273 C17.3528113,13.0310825 17.5266805,13.1201594 17.6875941,13.2295497 C17.7709121,13.2862479 17.8376123,13.3619398 17.9166729,13.2437832 C17.9981139,13.1219504 17.9776507,13.0029926 17.8564733,12.9250384 Z M10.2526511,10.9214662 C9.46497536,10.6577229 8.81289741,10.2010267 8.44011794,9.40536659 C8.39218719,9.30299876 8.28378221,9.16721527 8.39914562,9.06701545 C8.53593367,8.94810476 8.65990356,9.08723451 8.73951347,9.17994056 C9.48566753,10.0489831 10.4919386,10.2975974 11.5423408,10.4132561 C12.2755852,10.493991 12.9983919,10.5968772 13.6857197,10.8859768 C13.7982906,10.933296 13.9137914,10.9537979 14.0627567,10.9169417 C13.9966974,10.6772822 13.7944452,10.6598438 13.6367361,10.600412 C12.8655408,10.3096629 12.045133,10.2660199 11.2480268,10.1043145 C10.5994738,9.97272568 9.97944125,9.76205155 9.52444246,9.22245243 C9.37492781,9.04509969 9.23772776,8.85751959 9.21346482,8.61244007 C9.20527035,8.52991426 9.21154209,8.44234546 9.29431076,8.39700575 C9.37996352,8.35011072 9.45673512,8.39361234 9.50539834,8.46082068 C10.3612392,9.64299946 11.6654409,9.77388135 12.9245959,10.0063299 C13.4814533,10.1091219 14.0098818,10.2859562 14.5037928,10.5732176 C14.6777078,10.6743601 14.8600003,10.7804512 15.0629391,10.7853999 C15.5075918,10.7961457 15.6192929,11.0829359 15.6328893,11.4662497 C15.6377877,11.6036356 15.6539935,11.74154 15.646852,11.8782661 C15.6346747,12.1128355 15.7377235,12.1956441 15.9575549,12.1822118 C16.0752073,12.175048 16.2120411,12.1734455 16.3111987,12.2266561 C16.8404055,12.5106184 17.1821467,12.2236868 17.4578744,11.8185987 C17.6517033,11.5338351 17.8771655,11.4259059 18.2018769,11.4854319 C18.3183848,11.5067821 18.4417137,11.4881655 18.561884,11.4895794 C19.396346,11.4995711 19.5291512,11.3475747 19.4858442,10.6407559 C19.4774208,10.5023802 19.4783364,10.2861918 19.676148,10.2991528 C19.8375195,10.3096629 19.8060234,10.5094498 19.8189331,10.6409444 C19.8269903,10.722669 19.8269445,10.805619 19.8250218,10.8879092 C19.8040091,11.7819781 19.6794899,11.9079584 18.8182471,11.9258681 C18.6453851,11.92945 18.4717906,11.9439663 18.3006225,11.9687099 C18.1816883,11.9859126 18.0552005,12.0199409 18.0473723,12.1816463 C18.0407801,12.3168642 18.0975462,12.4324286 18.2174875,12.4832355 C18.5683846,12.6319799 18.6247387,13.105219 19.0275951,13.2245539 C19.1638795,13.2649449 19.0084136,13.399173 18.902618,13.3993144 C18.7006863,13.3996915 18.5734661,13.4609142 18.5520414,13.6919959 C18.5418785,13.8010092 18.4216625,13.8904632 18.3521698,13.8183062 C18.1056949,13.5624808 17.9583319,13.7326226 17.768028,13.8971087 C17.6252887,14.0204496 17.4295829,13.8793404 17.2550271,13.889285 C16.9190083,13.9084671 16.7572248,14.350223 16.3743281,14.1881877 C16.257454,14.1387005 16.275079,14.3508828 16.2803436,14.4448143 C16.3055221,14.8912832 16.4775143,15.2959 16.638428,15.7033919 C16.8444341,16.2249871 17.0599164,16.7438958 17.0855985,17.3191257 C17.1037728,17.7270889 17.0273675,18.1003167 16.6537182,18.3141957 C16.2581865,18.5406115 15.9003768,18.3726849 15.5764894,18.1265214 C15.1558708,17.806834 14.8819742,17.3719121 14.7068233,16.8689806 C14.680134,16.7923933 14.6485007,16.6962467 14.7313151,16.6455341 C14.8124357,16.5959055 14.8860944,16.6628782 14.9377332,16.7256091 C15.1532156,16.98742 15.3499743,17.2674705 15.5817083,17.5126914 C15.7642754,17.7058801 15.9836948,17.9350766 16.2751706,17.7260991 C16.5500742,17.5290458 16.6036816,17.2234505 16.4820464,16.9143675 C16.2667014,16.3672746 16.0202723,15.833284 15.8010361,15.2877935 C15.7045337,15.0476627 15.6345374,14.7950423 15.5676541,14.5438829 C15.510247,14.3283544 15.3987291,14.2060031 15.1711152,14.2259865 C15.1710695,14.2259394 15.1710237,14.2259394 15.1709779,14.2259394 C15.0188996,14.0381708 14.6734503,14.3431534 14.5839521,13.9755812 C14.549984,13.8358859 14.4446004,13.6221954 14.3135348,13.7073605 C14.1513851,13.8127447 14.313489,13.9967429 14.3964865,14.1252211 C14.4448751,14.2000646 14.5279184,14.2512014 14.5953053,14.3129898 C14.6700169,14.3675199 14.7702732,14.4860536 14.8154572,14.4668714 C15.3637996,14.2342815 15.3159604,14.7274098 15.4040852,14.9952534 C15.5759859,15.5180269 15.3306555,15.9048755 14.799526,16.0177535 C14.7085171,16.0370771 14.6036829,16.0739804 14.5474661,15.969963 C14.4908831,15.8653329 14.6058345,15.8405421 14.6576565,15.7874259 C14.7416612,15.701271 14.871033,15.5997986 14.7976949,15.4798039 C14.70046,15.3206436 14.5519983,15.4474723 14.4429524,15.4994574 C14.2621706,15.5856123 14.0976862,15.7071152 13.9213449,15.8041572 C13.5429346,16.0123806 13.217033,15.9289593 12.9249621,15.6010712 C12.7194138,15.3702722 12.5276908,15.1695427 12.589218,14.8056467 C12.6156783,14.6493614 12.5062204,14.4424577 12.2604323,14.5354465 C12.1857207,14.563725 12.1049663,14.6357878 12.0558453,14.5393584 C12.0251275,14.4791725 12.0290188,14.3547475 12.0699453,14.3087951 C12.3498847,13.9943392 12.213646,13.7768783 11.9293576,13.588874 C11.6688743,13.4166585 11.7699089,13.2968523 11.9591598,13.1415568 C12.3077221,12.8555678 12.7060921,12.8915757 13.1511568,12.9204196 C12.9822318,12.6953235 12.7636823,12.6946166 12.5677476,12.6429613 C12.4349423,12.6079432 12.2272424,12.6530944 12.2252739,12.4461436 C12.2234427,12.2543689 12.4314631,12.2663401 12.5605602,12.2123283 C12.751917,12.1323476 12.9831932,12.1497388 13.1478149,11.9558432 C12.9517429,11.7353659 12.685171,11.6763111 12.4365904,11.5968959 C11.7106707,11.3648716 10.9753205,11.1634822 10.2526511,10.9214662 Z" id="Combined-Shape" fill="#FFFFFF"></path>
    </g>
</svg>