<?xml version="1.0" encoding="UTF-8"?>
<svg width="32px" height="32px" viewBox="0 0 32 32" version="1.1" xmlns="http://www.w3.org/2000/svg" xmlns:xlink="http://www.w3.org/1999/xlink">
    <!-- Generator: Sketch 51.1 (57501) - http://www.bohemiancoding.com/sketch -->
    <title>svg/color/gsc</title>
    <desc>Created with Sketch.</desc>
    <defs></defs>
    <g id="color/gsc" stroke="none" stroke-width="1" fill="none" fill-rule="evenodd">
        <circle id="Oval" fill="#FD1597" fill-rule="nonzero" cx="16" cy="16" r="16"></circle>
        <path d="M24.296875,12.484375 L20.2890625,12.484375 L16,12.484375 C14.059375,12.484375 12.484375,14.059375 12.484375,16 C12.484375,17.940625 14.059375,19.515625 16,19.515625 C17.51875,19.515625 18.7984375,18.559375 19.290625,17.2234375 L16,17.2234375 C15.4796875,17.2234375 15.071875,16.8015625 15.071875,16.2953125 L15.071875,16.1828125 C15.071875,15.6625 15.49375,15.2546875 16,15.2546875 L19.43125,15.2546875 C19.43125,15.2546875 19.43125,15.2546875 19.43125,15.2546875 L21.484375,15.2546875 C21.5265625,15.5078125 21.540625,15.7609375 21.540625,16.028125 C21.540625,19.09375 19.0515625,21.56875 16,21.56875 C12.9484375,21.56875 10.459375,19.065625 10.459375,16 C10.459375,12.934375 12.9484375,10.459375 16,10.459375 L16.16875,10.43125 C16.2109375,10.4453125 16.2390625,10.459375 16.28125,10.459375 C16.8578125,10.459375 20.7109375,10.459375 21.203125,10.459375 C23.8890625,10.459375 24.9859375,9.025 24.9859375,7 L16,7 C11.0359375,7 7,11.0359375 7,16 C7,20.9640625 11.0359375,25 16,25 C20.95,25 24.971875,20.9921875 25,16.0421875 L25,13.2015625 C25,12.8078125 24.690625,12.484375 24.296875,12.484375 Z" id="Shape" fill="#FFFFFF" fill-rule="nonzero"></path>
    </g>
</svg>