<?xml version="1.0" encoding="UTF-8"?>
<svg width="32px" height="32px" viewBox="0 0 32 32" version="1.1" xmlns="http://www.w3.org/2000/svg" xmlns:xlink="http://www.w3.org/1999/xlink">
    <!-- Generator: Sketch 53.2 (72643) - https://sketchapp.com -->
    <title>svg/color/hart</title>
    <desc>Created with Sketch.</desc>
    <g id="color/hart" stroke="none" stroke-width="1" fill="none" fill-rule="evenodd">
        <circle id="Oval" fill="#00DE78" fill-rule="nonzero" cx="16" cy="16" r="16"></circle>
        <path d="M20.9157665,14.125 L11.5625,14.125 L11.5625,13.1875 L20.9532027,13.1875 C21.1506146,12.7455186 21.594024,12.4375 22.109375,12.4375 C22.8083604,12.4375 23.375,13.0041396 23.375,13.703125 C23.375,14.4021104 22.8083604,14.96875 22.109375,14.96875 C21.5583139,14.96875 21.08951,14.6165655 20.9157665,14.125 Z M10.4217973,17.96875 L19.625,17.96875 L19.625,18.90625 L10.4592335,18.90625 C10.28549,19.3978155 9.81668607,19.75 9.265625,19.75 C8.56663961,19.75 8,19.1833604 8,18.484375 C8,17.7853896 8.56663961,17.21875 9.265625,17.21875 C9.780976,17.21875 10.2243854,17.5267686 10.4217973,17.96875 Z M12.0155473,8.6875 L18.03125,8.6875 L18.03125,9.625 L12.0529835,9.625 C11.87924,10.1165655 11.4104361,10.46875 10.859375,10.46875 C10.1603896,10.46875 9.59375,9.90211039 9.59375,9.203125 C9.59375,8.50413961 10.1603896,7.9375 10.859375,7.9375 C11.374726,7.9375 11.8181354,8.24551863 12.0155473,8.6875 Z M18.9470165,23.40625 L13.34375,23.40625 L13.34375,22.46875 L18.9844527,22.46875 C19.1818646,22.0267686 19.625274,21.71875 20.140625,21.71875 C20.8396104,21.71875 21.40625,22.2853896 21.40625,22.984375 C21.40625,23.6833604 20.8396104,24.25 20.140625,24.25 C19.5895639,24.25 19.12076,23.8978155 18.9470165,23.40625 Z M15.640625,6.53125 C14.9416396,6.53125 14.375,5.96461039 14.375,5.265625 C14.375,4.56663961 14.9416396,4 15.640625,4 C16.3396104,4 16.90625,4.56663961 16.90625,5.265625 C16.90625,5.96461039 16.3396104,6.53125 15.640625,6.53125 Z M15.734375,28 C15.0353896,28 14.46875,27.4333604 14.46875,26.734375 C14.46875,26.0353896 15.0353896,25.46875 15.734375,25.46875 C16.4333604,25.46875 17,26.0353896 17,26.734375 C17,27.4333604 16.4333604,28 15.734375,28 Z M20.328125,10.46875 C19.6291396,10.46875 19.0625,9.90211039 19.0625,9.203125 C19.0625,8.50413961 19.6291396,7.9375 20.328125,7.9375 C21.0271104,7.9375 21.59375,8.50413961 21.59375,9.203125 C21.59375,9.90211039 21.0271104,10.46875 20.328125,10.46875 Z M11.046875,24.25 C10.3478896,24.25 9.78125,23.6833604 9.78125,22.984375 C9.78125,22.2853896 10.3478896,21.71875 11.046875,21.71875 C11.7458604,21.71875 12.3125,22.2853896 12.3125,22.984375 C12.3125,23.6833604 11.7458604,24.25 11.046875,24.25 Z M9.265625,14.96875 C8.56663961,14.96875 8,14.4021104 8,13.703125 C8,13.0041396 8.56663961,12.4375 9.265625,12.4375 C9.96461039,12.4375 10.53125,13.0041396 10.53125,13.703125 C10.53125,14.4021104 9.96461039,14.96875 9.265625,14.96875 Z M21.921875,19.75 C21.2228896,19.75 20.65625,19.1833604 20.65625,18.484375 C20.65625,17.7853896 21.2228896,17.21875 21.921875,17.21875 C22.6208604,17.21875 23.1875,17.7853896 23.1875,18.484375 C23.1875,19.1833604 22.6208604,19.75 21.921875,19.75 Z" id="Combined-Shape" fill="#FFFFFF"></path>
    </g>
</svg>