<?xml version="1.0" encoding="UTF-8"?>
<svg width="32px" height="32px" viewBox="0 0 32 32" version="1.1" xmlns="http://www.w3.org/2000/svg" xmlns:xlink="http://www.w3.org/1999/xlink">
    <!-- Generator: Sketch 55.2 (78181) - https://sketchapp.com -->
    <title>svg/color/idk</title>
    <desc>Created with Sketch.</desc>
    <g id="color/idk" stroke="none" stroke-width="1" fill="none" fill-rule="evenodd">
        <circle id="Oval" fill="#EE2649" fill-rule="nonzero" cx="16" cy="16" r="16"></circle>
        <path d="M13.6525445,13.7205437 L13.6525445,8.28403761 C11.057489,9.07411221 9.03514353,11.1146865 8.26490965,13.7205437 L13.6525445,13.7205437 Z M15.5845461,15.0639867 C16.0565025,14.5912331 17.361133,13.2843425 20.9765967,9.66267789 C19.5590364,8.54668057 17.8032691,7.93534021 15.9999248,7.93534021 C15.8681671,7.93534021 15.7308475,7.93944342 15.5845461,7.94764984 L15.5845461,15.0639867 Z M7.94158466,15.6556204 C7.935102,15.7841562 7.9320016,15.9023775 7.9320016,16.0168909 C7.9320016,17.823413 8.54232989,19.5821458 9.6563702,21.0022323 L13.6525445,16.9991763 L13.6525445,15.6556204 L7.94158466,15.6556204 Z M11.0238543,22.3718944 C12.4414898,23.4874965 14.1969751,24.0987051 15.9999248,24.0987051 C20.4486263,24.0987051 24.0679232,20.4732196 24.0679232,16.0168909 C24.0679232,14.2108958 23.4578016,12.4524265 22.3440808,11.0326036 L11.0238543,22.3718944 Z M15.9999248,26.0340453 C13.6832103,26.0340453 11.4399659,25.2266356 9.65360802,23.755052 L9.64896681,23.7599457 L9.45211945,23.5918083 C9.06428731,23.2579427 8.71565177,22.8875246 8.60986229,22.7730112 L8.60153818,22.7641461 C8.56670093,22.7262761 8.53644852,22.6927916 8.51074336,22.6633916 L8.50412917,22.6561263 C8.4681833,22.6149436 8.44452629,22.5867482 8.42971952,22.5678132 L8.33364463,22.4448299 C6.82752556,20.6439921 6,18.3680479 6,16.0168909 C6,10.4935399 10.4859627,6 15.9999248,6 C18.3280263,6 20.582094,6.81542791 22.3729615,8.30084571 L22.3786362,8.29634724 L22.548463,8.44170997 C22.6429032,8.52258834 22.7303157,8.60214917 22.8143836,8.68039246 C23.2294241,9.06643281 23.5081597,9.3930143 23.554553,9.44821939 L23.5770074,9.47152109 L23.580183,9.47788295 L23.6828721,9.59476791 L23.678306,9.60352017 C25.1769653,11.4020993 26,13.6719639 26,16.0168909 C26,21.5403736 21.5139809,26.0340453 15.9999248,26.0340453 L15.9999248,26.0340453 Z" id="Fill-3" fill="#FFFFFF"></path>
    </g>
</svg>