<?xml version="1.0" encoding="UTF-8"?>
<svg width="32px" height="32px" viewBox="0 0 32 32" version="1.1" xmlns="http://www.w3.org/2000/svg" xmlns:xlink="http://www.w3.org/1999/xlink">
    <!-- Generator: Sketch 52.5 (67469) - http://www.bohemiancoding.com/sketch -->
    <title>svg/color/lrn</title>
    <desc>Created with Sketch.</desc>
    <g id="color/lrn" stroke="none" stroke-width="1" fill="none" fill-rule="evenodd">
        <circle id="Oval" fill="#47BA32" fill-rule="nonzero" cx="16" cy="16" r="16"></circle>
        <path d="M12.7759004,26.9902179 L10.946643,26.9902179 L10.946643,22.5491329 L11.6216096,22.5491329 L11.6216096,26.3250333 L12.7759004,26.3250333 C12.7759004,26.3250333 12.7759004,26.9902179 12.7759004,26.9902179 Z M15.554024,26.9902179 L15.1431747,25.3174744 C15.1236105,25.3174744 15.1040462,25.3174744 15.084482,25.3174744 L14.693197,25.3174744 L14.693197,26.9902179 L14.0182303,26.9902179 L14.0182303,22.5491329 L15.0746999,22.5491329 C15.4464206,22.5491329 15.7203201,22.6567363 15.8963984,22.862161 C16.0529124,23.0382392 16.1311694,23.2925745 16.1311694,23.6153846 L16.1311694,24.2610049 C16.1311694,24.5740329 16.0137839,24.8381503 15.7692308,25.0631392 L16.2681192,27 L15.554024,27 L15.554024,26.9902179 Z M15.1138284,23.2240996 L14.7127612,23.2240996 L14.7127612,24.6425078 L15.1138284,24.6425078 C15.2214317,24.6425078 15.3094709,24.6033793 15.3877279,24.5251223 C15.4659849,24.4468653 15.4953313,24.3588261 15.4953313,24.2512228 L15.4953313,23.6056025 C15.4953313,23.3512672 15.3681636,23.2240996 15.1138284,23.2240996 Z M19.9755447,26.9902179 L19.2516674,26.9902179 L18.3321476,24.1436194 L18.3321476,26.9902179 L17.657181,26.9902179 L17.657181,22.5393508 L18.4104046,22.5393508 L19.300578,25.5326812 L19.300578,22.5393508 L19.9755447,22.5393508 L19.9755447,26.9902179 Z M15.2312139,19.4677635 L15.2605602,7.23032459 L10.2423299,15.5549133 L15.2312139,19.4677635 Z M21.1787461,15.5549133 L16.1507337,7.23032459 L16.18008,19.4677635 L21.1787461,15.5549133 Z M15.6714095,20.9546465 L9,15.613606 L15.6714095,5 L22.4112939,15.613606 L15.6714095,20.9546465 Z" id="Shape" fill="#FFFFFF" fill-rule="nonzero"></path>
    </g>
</svg>