<?xml version="1.0" encoding="UTF-8"?>
<svg width="32px" height="32px" viewBox="0 0 32 32" version="1.1" xmlns="http://www.w3.org/2000/svg" xmlns:xlink="http://www.w3.org/1999/xlink">
    <!-- Generator: Sketch 52.5 (67469) - http://www.bohemiancoding.com/sketch -->
    <title>svg/color/lyfe</title>
    <desc>Created with Sketch.</desc>
    <g id="color/lyfe" stroke="none" stroke-width="1" fill="none" fill-rule="evenodd">
        <circle id="Oval" fill="#49AA94" fill-rule="nonzero" cx="16" cy="16" r="16"></circle>
        <path d="M24.124622,24.124622 C26.2040931,22.0444275 27.4897773,19.1738217 27.4897773,16.0001206 C27.4897773,12.8264194 26.2040931,9.95557252 24.124622,7.87537802 C22.0444275,5.79590689 19.1738217,4.51022274 16.0001206,4.51022274 C12.8264194,4.51022274 9.95557252,5.79590689 7.87537802,7.87537802 C5.79590689,9.95557252 4.51022274,12.8264194 4.51022274,16.0001206 C4.51022274,19.1738217 5.79590689,22.0444275 7.87537802,24.124622 C9.95557252,26.2040931 12.8264194,27.4897773 16.0001206,27.4897773 C19.1738217,27.4897773 22.0444275,26.2040931 24.124622,24.124622 Z M24.4853466,7.51465343 C26.6566867,9.68551134 28.0002411,12.6870485 28,16.0001206 C28.0002411,19.3129515 26.6564456,22.3144887 24.4853466,24.4853466 C22.3144887,26.6564456 19.3129515,28.0002411 16.0001206,28 C12.6870485,28.0002411 9.68551134,26.6564456 7.51465343,24.4853466 C5.3435544,22.3144887 3.99975887,19.3129515 4,16.0001206 C3.99975887,12.6870485 5.3435544,9.68551134 7.51465343,7.51465343 C9.68551134,5.3435544 12.6870485,3.99975887 16.0001206,4 C19.3129515,3.99975887 22.3144887,5.3435544 24.4853466,7.51465343 Z M14.1564707,19.8525916 C14.4016959,19.8525916 14.7698954,19.7477018 15.1730582,19.6073664 L15.6111842,21.7982378 C15.1028905,22.0437041 14.5596335,22.3417359 13.5428049,22.3417359 C11.7198919,22.3417359 10.5104036,21.1146454 10.5104036,19.2917324 L10.5104036,8.58139512 L13.3149408,8.58139512 L13.3149408,19.0814705 C13.3149408,19.5371987 13.6479359,19.8525916 14.1564707,19.8525916 Z M21.6632072,12.6805381 L24.4665387,12.6805381 L19.2345855,24.7898888 L16.431254,24.7898888 L18.2404228,20.601288 L14.8506726,12.6805381 L17.6540042,12.6805381 L19.5933811,17.4560397 L21.6632072,12.6805381 Z" id="Combined-Shape" fill="#F2F1F0"></path>
    </g>
</svg>