<?xml version="1.0" encoding="UTF-8"?>
<svg width="32px" height="32px" viewBox="0 0 32 32" version="1.1" xmlns="http://www.w3.org/2000/svg" xmlns:xlink="http://www.w3.org/1999/xlink">
    <!-- Generator: Sketch 56.3 (81716) - https://sketch.com -->
    <title>svg/color/perl</title>
    <desc>Created with Sketch.</desc>
    <g id="color/perl" stroke="none" stroke-width="1" fill="none" fill-rule="evenodd">
        <circle id="Oval" fill="#8164FB" fill-rule="nonzero" cx="16" cy="16" r="16"></circle>
        <path d="M16.0211765,27.2498824 C15.3072941,27.2498824 14.6103529,27.1811765 13.9336471,27.0541176 L12.8357647,25.9181176 C12.2428235,25.3044706 12.4098824,24.4894118 12.5091765,24.1675294 C12.8018824,23.2207059 13.5487059,22.8065882 15.3618824,22.5849412 C21.5510588,21.8296471 25.1011765,18.3538824 25.1011765,13.048 C25.1007059,10.8258824 24.3618824,8.82258824 23.104,7.25176471 C25.6569412,9.31435294 27.2908235,12.4658824 27.2908235,16 C27.2908235,22.2131765 22.2451765,27.2498824 16.0211765,27.2498824 M12.1581176,26.5712941 C12.1543529,26.5703529 12.1505882,26.5689412 12.1472941,26.5675294 C11.9124706,26.4818824 11.6823529,26.3858824 11.4550588,26.2847059 C11.3981176,26.2597647 11.3407059,26.2343529 11.2842353,26.2075294 C11.0592941,26.1030588 10.8367059,25.9938824 10.6202353,25.8752941 C10.5934118,25.8607059 10.5670588,25.8447059 10.5407059,25.8296471 C10.3411765,25.7185882 10.1458824,25.6009412 9.95388235,25.4781176 C9.90917647,25.4498824 9.864,25.4211765 9.81929412,25.3924706 C9.61270588,25.256 9.41035294,25.1134118 9.21364706,24.9647059 C9.17882353,24.9378824 9.14494118,24.9101176 9.11011765,24.8832941 C8.93223529,24.7449412 8.75811765,24.6018824 8.58917647,24.4536471 C8.55952941,24.4272941 8.52894118,24.4018824 8.49929412,24.3755294 C8.31388235,24.2094118 8.13505882,24.0371765 7.96094118,23.8592941 C7.92564706,23.8235294 7.89129412,23.7868235 7.85647059,23.7501176 C7.69129412,23.5769412 7.53082353,23.3995294 7.37741176,23.2169412 C7.36658824,23.2037647 7.35482353,23.1915294 7.34447059,23.1783529 C7.18352941,22.9849412 7.03105882,22.7849412 6.88329412,22.5807059 C6.85176471,22.5369412 6.82070588,22.4936471 6.78964706,22.4494118 C6.64423529,22.2423529 6.504,22.032 6.37270588,21.8155294 C6.36658824,21.8056471 6.36141176,21.7952941 6.35529412,21.7854118 C6.22964706,21.5764706 6.112,21.3618824 6,21.1444706 C5.97552941,21.0978824 5.95152941,21.0512941 5.928,21.0042353 C5.816,20.7797647 5.71011765,20.5515294 5.61317647,20.3185882 C5.59858824,20.2832941 5.58541176,20.248 5.57129412,20.2127059 C5.48564706,20.0009412 5.40658824,19.7854118 5.33364706,19.5670588 C5.31858824,19.5228235 5.30258824,19.4785882 5.288,19.4338824 C5.21082353,19.1929412 5.14211765,18.9487059 5.08094118,18.7011765 C5.06870588,18.6517647 5.05788235,18.6009412 5.04611765,18.5510588 C4.99247059,18.3209412 4.94588235,18.0894118 4.90682353,17.8545882 C4.90164706,17.8230588 4.89458824,17.7910588 4.88988235,17.7595294 C4.84941176,17.5035294 4.81976471,17.2442353 4.79670588,16.9830588 C4.792,16.9247059 4.78776471,16.8654118 4.78352941,16.8065882 C4.76470588,16.5397647 4.75152941,16.2715294 4.75152941,16 C4.75152941,15.6616471 4.76941176,15.3275294 4.79858824,14.9967059 C4.80282353,14.9487059 4.80470588,14.9007059 4.80941176,14.8527059 C4.82258824,14.7261176 4.84047059,14.6009412 4.85741176,14.4752941 C4.86588235,14.4141176 4.87152941,14.352 4.88094118,14.2908235 C4.89976471,14.1684706 4.92329412,14.0475294 4.94588235,13.9265882 C4.95764706,13.864 4.96705882,13.8004706 4.97976471,13.7378824 C5.00188235,13.6277647 5.02964706,13.5185882 5.05505882,13.4098824 C5.072,13.3383529 5.08658824,13.2654118 5.10494118,13.1943529 C5.13082353,13.0931765 5.16141176,12.9938824 5.19011765,12.8941176 C5.21223529,12.8164706 5.23247059,12.7378824 5.25647059,12.6607059 C5.28705882,12.5618824 5.32235294,12.4644706 5.35576471,12.3665882 C5.38164706,12.2912941 5.40517647,12.2141176 5.43294118,12.1392941 C5.46917647,12.04 5.50964706,11.9425882 5.54870588,11.8447059 C5.57741176,11.7727059 5.60376471,11.7002353 5.63388235,11.6296471 C5.67435294,11.5336471 5.71905882,11.4390588 5.76235294,11.3444706 C5.79482353,11.2738824 5.82494118,11.2014118 5.85882353,11.1312941 C5.90305882,11.0395294 5.95152941,10.9496471 5.99811765,10.8592941 C6.03435294,10.7887059 6.06917647,10.7167059 6.10682353,10.6470588 C6.15388235,10.56 6.20470588,10.4752941 6.25411765,10.3901176 C6.29552941,10.3185882 6.33505882,10.2461176 6.37741176,10.176 C6.42776471,10.0936471 6.48141176,10.0131765 6.53364706,9.93176471 C6.57929412,9.86164706 6.62258824,9.78964706 6.66964706,9.72047059 C6.72329412,9.64094118 6.78023529,9.56376471 6.83576471,9.48611765 C6.88470588,9.41694118 6.93270588,9.34729412 6.98305882,9.27905882 C7.03905882,9.20423529 7.09835294,9.13223529 7.15576471,9.05882353 C7.20941176,8.99058824 7.26164706,8.92141176 7.31670588,8.85458824 C7.376,8.78258824 7.43858824,8.71294118 7.49929412,8.64282353 C7.55623529,8.57741176 7.61129412,8.51105882 7.66964706,8.44658824 C7.73082353,8.37929412 7.79529412,8.31482353 7.85788235,8.24847059 C7.91905882,8.184 7.97929412,8.11858824 8.04188235,8.05552941 C8.10305882,7.99435294 8.16705882,7.936 8.22964706,7.87623529 C8.29694118,7.81176471 8.36376471,7.74588235 8.43294118,7.68282353 C8.49552941,7.62635294 8.56047059,7.57223529 8.624,7.51623529 C8.696,7.45411765 8.76705882,7.39011765 8.84047059,7.32941176 C8.90447059,7.27670588 8.97129412,7.22635294 9.03623529,7.17505882 C9.11247059,7.11482353 9.18776471,7.05317647 9.26588235,6.99482353 C9.33082353,6.94588235 9.39764706,6.90070588 9.46352941,6.85317647 C9.54447059,6.79576471 9.624,6.73647059 9.70635294,6.68094118 C9.77270588,6.63623529 9.84094118,6.59435294 9.90823529,6.55105882 C9.99294118,6.496 10.0767059,6.44047059 10.1628235,6.38823529 C10.2296471,6.34729412 10.2978824,6.31011765 10.3651765,6.27105882 C10.4545882,6.21929412 10.5430588,6.16611765 10.6343529,6.11670588 C10.7016471,6.08 10.7712941,6.04564706 10.8395294,6.01035294 C10.9327059,5.96282353 11.0244706,5.91341176 11.1190588,5.86776471 C11.1887059,5.83388235 11.2602353,5.80376471 11.3308235,5.77082353 C11.4258824,5.728 11.5204706,5.68329412 11.6169412,5.64235294 C11.6884706,5.61223529 11.7614118,5.58447059 11.8338824,5.55576471 C11.9312941,5.51670588 12.0287059,5.47623529 12.1275294,5.44 C12.2004706,5.41364706 12.2752941,5.38964706 12.3491765,5.36423529 C12.4489412,5.32988235 12.5487059,5.29458824 12.6498824,5.26258824 C12.7256471,5.23905882 12.8023529,5.21882353 12.8785882,5.19670588 C12.9797647,5.16752941 13.0804706,5.13694118 13.1830588,5.11058824 C13.2621176,5.08988235 13.3430588,5.07294118 13.4230588,5.05411765 C13.5237647,5.03011765 13.6244706,5.00517647 13.7265882,4.98447059 C13.8084706,4.96705882 13.8917647,4.95388235 13.9741176,4.93882353 C14.0762353,4.92 14.1774118,4.90023529 14.28,4.88423529 C14.3647059,4.87105882 14.4503529,4.86164706 14.5355294,4.85035294 C14.6376471,4.83717647 14.7388235,4.82258824 14.8418824,4.81129412 C14.9303529,4.80235294 15.0197647,4.79717647 15.1087059,4.78964706 C15.2098824,4.78211765 15.3105882,4.77223529 15.4127059,4.76705882 C15.5044706,4.76235294 15.5976471,4.76141176 15.6903529,4.75858824 C15.7844706,4.75576471 15.8781176,4.75152941 15.9727059,4.75105882 C20.832,4.88894118 24.1595294,8.64141176 24.1595294,13.048 L24.16,13.048 C24.16,17.7505882 21.0244706,20.9458824 15.2475294,21.6512941 C13.4983529,21.8644706 12.0978824,22.312 11.6098824,23.8898824 C11.3609412,24.6978824 11.3769412,25.7618824 12.1581176,26.5712941 M19.1703529,4.41882353 C19.1632941,4.41647059 19.1562353,4.41270588 19.1487059,4.41035294 C19.1303529,4.40517647 19.1110588,4.40188235 19.0927059,4.39670588 C18.8701176,4.33788235 18.6451765,4.28517647 18.4174118,4.23952941 C18.3708235,4.22964706 18.3228235,4.22258824 18.2757647,4.21411765 C18.0903529,4.17882353 17.904,4.14776471 17.7162353,4.12141176 C17.6371765,4.11011765 17.5571765,4.10070588 17.4776471,4.09082353 C17.3115294,4.07058824 17.1444706,4.05458824 16.9764706,4.04141176 C16.8992941,4.03529412 16.8225882,4.02823529 16.7454118,4.024 C16.5129412,4.00988235 16.2795294,4.00141176 16.0437647,4.00094118 C16.0362353,4.00094118 16.0287059,4 16.0211765,4 C9.38211765,4 4,9.37270588 4,16 L4,16.0028235 C4,16.2023529 4.00564706,16.4009412 4.01505882,16.5985882 C4.01835294,16.6654118 4.02494118,16.7303529 4.02964706,16.7967059 C4.03811765,16.928 4.04658824,17.0602353 4.05929412,17.1901176 C4.06729412,17.2687059 4.07811765,17.3463529 4.08752941,17.4244706 C4.10117647,17.5407059 4.11435294,17.6574118 4.13129412,17.7727059 C4.144,17.8555294 4.15905882,17.9378824 4.17317647,18.0202353 C4.19152941,18.1294118 4.20988235,18.2395294 4.23152941,18.3477647 C4.248,18.4310588 4.26682353,18.5129412 4.28517647,18.5948235 C4.30870588,18.7016471 4.33270588,18.8084706 4.35905882,18.9138824 C4.37929412,18.9962353 4.40188235,19.0776471 4.424,19.1590588 C4.45223529,19.2621176 4.48094118,19.3656471 4.512,19.4682353 C4.53694118,19.5501176 4.56282353,19.6315294 4.58917647,19.712 C4.62211765,19.8127059 4.65552941,19.9129412 4.69082353,20.0127059 C4.71952941,20.0927059 4.74870588,20.1722353 4.77882353,20.2512941 C4.81647059,20.3501176 4.85505882,20.4484706 4.89552941,20.5463529 C4.92752941,20.624 4.96,20.7011765 4.99341176,20.7783529 C5.03576471,20.8752941 5.07952941,20.9717647 5.12470588,21.0677647 C5.15952941,21.1425882 5.19482353,21.2174118 5.23105882,21.2912941 C5.27858824,21.3877647 5.328,21.4828235 5.37788235,21.5774118 C5.41552941,21.6494118 5.45317647,21.7209412 5.49223529,21.7915294 C5.54494118,21.8870588 5.6,21.9807059 5.65505882,22.0743529 C5.69505882,22.1421176 5.73458824,22.2108235 5.776,22.2781176 C5.83482353,22.3736471 5.89647059,22.4677647 5.95811765,22.5614118 C5.99905882,22.624 6.03905882,22.6870588 6.08094118,22.7487059 C6.14870588,22.8475294 6.21882353,22.944 6.28894118,23.0409412 C6.32847059,23.0950588 6.36705882,23.1505882 6.40705882,23.2037647 C6.48894118,23.3124706 6.57364706,23.4174118 6.65835294,23.5228235 C6.69082353,23.5628235 6.72141176,23.6042353 6.75435294,23.6437647 C6.99294118,23.9317647 7.24564706,24.2089412 7.51011765,24.4738824 C7.54870588,24.5124706 7.58917647,24.5496471 7.62823529,24.5877647 C7.72235294,24.6790588 7.81694118,24.7708235 7.91388235,24.8592941 C7.96517647,24.9063529 8.01835294,24.9510588 8.07058824,24.9967059 C8.15858824,25.0743529 8.24658824,25.152 8.33647059,25.2268235 C8.39435294,25.2752941 8.45411765,25.3209412 8.51294118,25.3684706 C8.59952941,25.4376471 8.68658824,25.5068235 8.77505882,25.5736471 C8.83811765,25.6216471 8.90305882,25.6677647 8.96705882,25.7143529 C9.05411765,25.7774118 9.14164706,25.8404706 9.23011765,25.9011765 C9.29788235,25.9472941 9.36611765,25.992 9.43435294,26.0367059 C9.52282353,26.0945882 9.61129412,26.1515294 9.70117647,26.2070588 C9.77176471,26.2508235 9.84329412,26.2936471 9.91482353,26.336 C10.0051765,26.3891765 10.0955294,26.4409412 10.1872941,26.4922353 C10.2607059,26.5331765 10.3345882,26.5727059 10.4089412,26.6122353 C10.5016471,26.6607059 10.5943529,26.7082353 10.688,26.7543529 C10.7637647,26.792 10.84,26.8287059 10.9167059,26.8654118 C11.0112941,26.9091765 11.1063529,26.952 11.2018824,26.9938824 C11.28,27.0277647 11.3581176,27.0621176 11.4371765,27.0945882 C11.5341176,27.1345882 11.6315294,27.1722353 11.7294118,27.2094118 C11.8094118,27.24 11.8894118,27.2705882 11.9698824,27.2992941 C12.0691765,27.3350588 12.1694118,27.368 12.2696471,27.4004706 C12.3510588,27.4272941 12.4324706,27.4550588 12.5143529,27.4795294 C12.6169412,27.5110588 12.7204706,27.5388235 12.824,27.5675294 C12.9054118,27.5901176 12.9868235,27.6131765 13.0696471,27.6343529 C13.1769412,27.6611765 13.2851765,27.6851765 13.3938824,27.7091765 C13.4738824,27.7270588 13.5538824,27.7463529 13.6348235,27.7628235 C13.7534118,27.7868235 13.8734118,27.8065882 13.9924706,27.8268235 C14.0649412,27.8390588 14.1364706,27.8531765 14.2089412,27.8644706 C14.3882353,27.8912941 14.5694118,27.9138824 14.7510588,27.9327059 C15.1684706,27.9764706 15.592,28 16.0211765,28 C22.6597647,28 28.0418824,22.6272941 28.0418824,16 C28.0418824,10.4607059 24.2809412,5.80094118 19.1703529,4.41882353" id="Fill-1" fill="#FFFFFF"></path>
    </g>
</svg>