<?xml version="1.0" encoding="UTF-8"?>
<svg width="32px" height="32px" viewBox="0 0 32 32" version="1.1" xmlns="http://www.w3.org/2000/svg" xmlns:xlink="http://www.w3.org/1999/xlink">
    <!-- Generator: Sketch 52.2 (67145) - http://www.bohemiancoding.com/sketch -->
    <title>svg/color/six</title>
    <desc>Created with Sketch.</desc>
    <defs>
        <path d="M20.7874815,13.2025664 C20.6967623,13.1608741 20.6403233,13.0782617 20.6403233,12.9870021 L20.6403233,10.3122131 C20.6403233,10.171 20.5445084,10.0392061 20.3901699,9.96832934 L16.6865091,8.26628217 C16.5337919,8.19610023 16.3441695,8.19617744 16.1917611,8.26628217 L12.4881003,9.96832934 C12.3336074,10.0392061 12.2377925,10.171 12.2377925,10.3122131 L12.2377925,14.4514034 C12.2377925,14.5925394 12.3336074,14.7244104 12.4881003,14.7952872 L16.1917611,16.4972572 C16.3440922,16.5674391 16.5338692,16.5675163 16.6865091,16.4972572 L17.2114453,16.2560599 C17.2901973,16.2200038 17.3836188,16.220081 17.4619848,16.2559054 L19.3304149,17.1126038 C19.4211341,17.154296 19.477573,17.2369084 19.477573,17.3282453 C19.4777275,17.4195822 19.4213657,17.5021174 19.3307237,17.5438097 L16.8946615,18.6633236 C16.7492019,18.7301856 16.5894588,18.7636938 16.429793,18.7636938 C16.2702043,18.7636938 16.1105385,18.7301856 15.9649245,18.6633236 L12.2192626,16.9419744 L12.2193398,21.6877097 C12.2193398,21.8289228 12.3151547,21.9606394 12.4694932,22.0315935 L16.1731541,23.7336406 C16.3257168,23.8037454 16.5153393,23.8037454 16.6679792,23.7336406 L20.37164,22.0315935 C20.5259785,21.9606394 20.6217935,21.8289228 20.6217935,21.6877097 L20.6217935,17.4493073 C20.6217935,17.3080941 20.5259785,17.1763775 20.37164,17.1054235 L16.6679792,15.4034535 C16.5153393,15.3332716 16.3257168,15.3332716 16.1731541,15.4034535 L15.6482178,15.6446508 C15.5699291,15.6807069 15.4761987,15.6807841 15.3976784,15.6448053 L13.5291711,14.7881069 C13.4383746,14.7464919 13.3820901,14.6639567 13.3820129,14.5726198 C13.3820129,14.4812829 13.4382974,14.3985933 13.5289394,14.356901 L15.9649245,13.2373871 C16.2561525,13.1036631 16.6035106,13.1036631 16.8946615,13.2373871 L22.3511722,15.7450211 C22.6647905,15.8890909 22.8595087,16.1668076 22.8595087,16.4697712 L22.8595087,22.6671685 C22.8595087,22.9702093 22.6647905,23.247926 22.3511722,23.3920731 L16.8946615,25.8996298 C16.7491247,25.9664918 16.5894588,26 16.429793,26 C16.2702043,26 16.1105385,25.9664918 15.9650017,25.8996298 L10.5084137,23.3920731 C10.1948726,23.2478488 10,22.9701321 10,22.6671685 L10,9.33267707 C10,9.02979065 10.1948726,8.752074 10.5084137,8.60784972 L15.9649245,6.100293 C16.2559981,5.966569 16.6035106,5.966569 16.8946615,6.100293 L22.3511722,8.60784972 C22.6647905,8.752074 22.8595087,9.02971344 22.8595087,9.33267707 L22.8595087,13.7550658 C22.8595087,13.8342811 22.8185886,13.9059299 22.7470941,13.9517914 C22.6632464,14.0056825 22.5539972,14.01294 22.4621199,13.9706301 L20.7874815,13.2025664 Z M13.0476257,17.8941017 L16.29051,19.3681541 C16.3219336,19.3824375 16.3578352,19.3825919 16.3894133,19.3686173 L19.7230168,17.8917083 C19.8028497,17.8562699 19.8927969,17.9147934 19.8927969,18.0021155 L19.8927969,21.5179296 C19.8927969,21.5644859 19.8658514,21.6069503 19.8236959,21.6270243 L16.4355063,23.234183 C16.4033879,23.2494702 16.3660965,23.2497018 16.3337464,23.2350323 L12.9476415,21.6938863 C12.9045595,21.6742755 12.8769191,21.6313479 12.8769191,21.5839423 L12.8769191,18.0040457 C12.8769191,17.9161832 12.9677155,17.857814 13.0476257,17.8941017 Z" id="path-1"></path>
        <filter x="-13.6%" y="-6.2%" width="127.2%" height="117.0%" filterUnits="objectBoundingBox" id="filter-2">
            <feOffset dx="0" dy="0.5" in="SourceAlpha" result="shadowOffsetOuter1"></feOffset>
            <feGaussianBlur stdDeviation="0.5" in="shadowOffsetOuter1" result="shadowBlurOuter1"></feGaussianBlur>
            <feColorMatrix values="0 0 0 0 0   0 0 0 0 0   0 0 0 0 0  0 0 0 0.2 0" type="matrix" in="shadowBlurOuter1"></feColorMatrix>
        </filter>
    </defs>
    <g id="color/six" stroke="none" stroke-width="1" fill="none" fill-rule="evenodd">
        <circle id="Oval" fill="#474DA0" fill-rule="nonzero" cx="16" cy="16" r="16"></circle>
        <g id="Combined-Shape">
            <use fill="black" fill-opacity="1" filter="url(#filter-2)" xlink:href="#path-1"></use>
            <use fill="#FFFFFF" fill-rule="evenodd" xlink:href="#path-1"></use>
        </g>
    </g>
</svg>