<svg xmlns="http://www.w3.org/2000/svg" width="32" height="32" viewBox="0 0 32 32"><path d="M32 16.1c0 4.4-1.6 8.1-4.7 11.2C24.2 30.4 20.5 32 16.1 32c-4.4 0-8.1-1.6-11.2-4.7 -3.1-3.1-4.6-6.8-4.6-11.2 0-4.4 1.5-8.1 4.6-11.2 3.1-3.1 6.9-4.6 11.2-4.6 4.4 0 8.1 1.5 11.2 4.6C30.4 8 32 11.7 32 16.1z" fill="#0899CD"/><path d="M30.9 15.1L24.4 3.7v11c0.2 0.1 0.3 0.2 0.4 0.3 0.1 0.1 0.2 0.3 0.3 0.5h5.6C30.8 15.3 30.8 15.2 30.9 15.1zM31.9 15.9c0 0.4 0 0.8 0 1.3 -0.1 0-0.1 0-0.2 0l-6.8 11.7c0 0 0.1 0.1 0.1 0.1 -0.7 0.5-1.4 0.9-2.1 1.3 0-0.1-0.1-0.1-0.1-0.2H9.2c0 0.1-0.1 0.1-0.1 0.2 -0.7-0.4-1.4-0.8-2.1-1.3 0-0.1 0.1-0.1 0.1-0.2L0.3 17.1c-0.1 0-0.1 0-0.2 0 0-0.4 0-0.8 0-1.3 0-0.4 0-0.8 0-1.2 0.1 0 0.1 0 0.2 0l6.8-11.7c0-0.1-0.1-0.1-0.1-0.2C7.7 2.3 8.4 1.9 9.1 1.5c0 0.1 0.1 0.1 0.1 0.2h13.6c0-0.1 0.1-0.1 0.1-0.2 0.7 0.4 1.4 0.8 2.1 1.3 0 0.1-0.1 0.1-0.1 0.2l6.8 11.8c0.1 0 0.1 0 0.2 0C31.9 15.1 31.9 15.5 31.9 15.9zM30.7 16.3H25.1c-0.1 0.2-0.2 0.3-0.3 0.5 -0.1 0.1-0.3 0.2-0.4 0.3v11l6.6-11.4C30.8 16.6 30.8 16.5 30.7 16.3zM1.3 15.5h5.6c0.1-0.2 0.2-0.3 0.3-0.4 0.1-0.1 0.3-0.2 0.5-0.3V3.7L1.1 15.1C1.2 15.2 1.2 15.3 1.3 15.5zM9.2 2.6l8.8 7.6c0.2-0.1 0.4-0.2 0.6-0.2 0.1 0 0.1 0 0.2 0l4.1-7.2c-0.1-0.1-0.2-0.2-0.2-0.4H9.2C9.2 2.6 9.2 2.6 9.2 2.6zM9.2 15.5h5.6c0-0.1 0.1-0.3 0.2-0.4L8.5 3.7v11c0.2 0.1 0.3 0.2 0.5 0.3C9.1 15.2 9.2 15.3 9.2 15.5zM19.8 11.8l3.5 3.1c0.1 0 0.1-0.1 0.2-0.1V3.7l-3.9 6.8c0.2 0.2 0.3 0.5 0.3 0.8C19.9 11.5 19.9 11.6 19.8 11.8zM17.5 10.9L9.7 4.1l6.1 10.6c0.1 0 0.1 0 0.2 0 0.1 0 0.1 0 0.2 0l1.5-2.6c-0.2-0.2-0.3-0.5-0.3-0.8C17.4 11.2 17.4 11 17.5 10.9zM17.2 15.5h5.6c0 0 0 0 0 0l-3.5-3.1c-0.2 0.1-0.4 0.2-0.6 0.2 -0.1 0-0.1 0-0.2 0l-1.5 2.6C17.1 15.2 17.1 15.3 17.2 15.5zM23.1 16.8c-0.1-0.1-0.2-0.3-0.3-0.5h-5.6c0 0.1-0.1 0.2-0.2 0.4l6.6 11.4V17.1C23.4 17 23.2 16.9 23.1 16.8zM15.8 17.1l-1.5 2.6c0.2 0.2 0.3 0.5 0.3 0.8 0 0.2 0 0.3-0.1 0.4l7.8 6.8 -6.1-10.6c-0.1 0-0.1 0-0.2 0C15.9 17.1 15.9 17.1 15.8 17.1zM22.8 29.2l-8.8-7.6c-0.2 0.1-0.4 0.2-0.6 0.2 -0.1 0-0.1 0-0.2 0l-4.1 7.1c0.1 0.1 0.2 0.2 0.2 0.4h13.6C22.8 29.2 22.8 29.2 22.8 29.2zM13.6 19.3l1.5-2.6c-0.1-0.1-0.2-0.2-0.2-0.4H9.2c0 0 0 0 0 0l3.5 3.1c0.2-0.1 0.4-0.2 0.6-0.2C13.4 19.3 13.5 19.3 13.6 19.3zM12.2 20l-3.5-3.1c-0.1 0-0.1 0.1-0.2 0.1v11l3.9-6.8c-0.2-0.2-0.3-0.5-0.3-0.8C12.1 20.3 12.1 20.2 12.2 20zM7.2 16.8c-0.1-0.1-0.2-0.3-0.3-0.5h-5.6c0 0.1-0.1 0.3-0.2 0.4l6.6 11.4V17.1C7.5 17 7.3 16.9 7.2 16.8z" fill="#FFF"/></svg>