<?xml version="1.0" encoding="utf-8"?>
<!DOCTYPE svg PUBLIC "-//W3C//DTD SVG 1.1//EN" "http://www.w3.org/Graphics/SVG/1.1/DTD/svg11.dtd">
<svg version="1.1" id="logo_ten" xmlns="http://www.w3.org/2000/svg" xmlns:xlink="http://www.w3.org/1999/xlink" x="0px"
	 y="0px" width="32px" height="32px" viewBox="0 0 32 32" enable-background="new 0 0 32 32" xml:space="preserve">
<path fill="#0899CD" d="M32,16.111c0,4.391-1.551,8.134-4.656,11.23C24.246,30.445,20.504,32,16.114,32
	c-4.39,0-8.139-1.555-11.244-4.658c-3.096-3.098-4.644-6.84-4.644-11.23c0-4.39,1.548-8.139,4.644-11.245
	c3.105-3.096,6.854-4.645,11.244-4.645c4.39,0,8.134,1.549,11.23,4.645C30.449,7.973,32,11.721,32,16.111z"/>
<g>
	<path fill="#FFFFFF" d="M30.945,15.107L24.374,3.716v11.019c0.164,0.062,0.313,0.16,0.449,0.295
		c0.137,0.135,0.233,0.287,0.297,0.45h5.601C30.771,15.347,30.846,15.223,30.945,15.107z M31.889,15.889
		c0,0.423-0.015,0.841-0.041,1.253c-0.062-0.004-0.119-0.012-0.177-0.021l-6.776,11.734c0.043,0.049,0.08,0.1,0.112,0.147
		c-0.684,0.481-1.396,0.902-2.133,1.261c-0.035-0.062-0.065-0.125-0.09-0.189H9.217c-0.024,0.066-0.055,0.131-0.091,0.189
		c-0.737-0.354-1.448-0.771-2.132-1.253c0.033-0.055,0.07-0.104,0.113-0.155L0.332,17.121c-0.057,0.012-0.116,0.02-0.176,0.021
		c-0.028-0.412-0.042-0.831-0.042-1.253c0-0.414,0.014-0.822,0.042-1.225c0.06,0.002,0.118,0.01,0.176,0.021l6.776-11.75
		c-0.047-0.054-0.086-0.11-0.12-0.169C7.67,2.285,8.381,1.869,9.12,1.514c0.039,0.064,0.072,0.132,0.099,0.204h13.566
		c0.025-0.071,0.059-0.14,0.1-0.204c0.736,0.355,1.447,0.775,2.131,1.26c-0.031,0.053-0.067,0.104-0.111,0.155l6.771,11.758
		c0.06-0.012,0.115-0.019,0.177-0.021C31.874,15.066,31.889,15.475,31.889,15.889z M30.721,16.324H25.12
		c-0.063,0.166-0.16,0.314-0.297,0.451c-0.136,0.137-0.285,0.233-0.449,0.297v11.004l6.571-11.377
		C30.846,16.582,30.771,16.457,30.721,16.324z M1.281,15.48h5.601c0.063-0.165,0.16-0.314,0.295-0.449
		c0.135-0.137,0.286-0.234,0.45-0.295V3.717L1.054,15.108C1.156,15.223,1.231,15.347,1.281,15.48z M9.204,2.59l8.831,7.648
		c0.186-0.108,0.389-0.162,0.613-0.162c0.074,0,0.146,0.006,0.217,0.021l4.145-7.163c-0.098-0.115-0.174-0.238-0.225-0.373H9.218
		C9.213,2.57,9.208,2.58,9.204,2.59z M9.217,15.48h5.615c0.047-0.138,0.12-0.267,0.218-0.387L8.471,3.716v11.019
		c0.165,0.062,0.315,0.16,0.451,0.295C9.058,15.165,9.156,15.315,9.217,15.48z M19.809,11.759l3.539,3.062
		c0.061-0.035,0.118-0.063,0.184-0.084V3.717l-3.934,6.804c0.19,0.229,0.286,0.494,0.286,0.795
		C19.884,11.473,19.857,11.621,19.809,11.759z M17.491,10.871L9.667,4.103l6.115,10.569c0.07-0.014,0.144-0.021,0.218-0.021
		c0.075,0,0.146,0.008,0.218,0.021l1.484-2.561c-0.195-0.228-0.295-0.492-0.295-0.796C17.407,11.156,17.438,11.008,17.491,10.871z
		 M17.175,15.48h5.609c0.006-0.009,0.01-0.019,0.014-0.027l-3.539-3.062c-0.186,0.108-0.389,0.162-0.61,0.162
		c-0.076,0-0.148-0.007-0.219-0.021l-1.479,2.562C17.05,15.213,17.126,15.342,17.175,15.48z M23.079,16.775
		c-0.138-0.137-0.233-0.285-0.295-0.451h-5.623c-0.048,0.127-0.119,0.244-0.211,0.353l6.579,11.397V17.07
		C23.363,17.01,23.214,16.91,23.079,16.775z M15.796,17.113l-1.492,2.582c0.192,0.229,0.289,0.494,0.289,0.795
		c0,0.158-0.025,0.307-0.078,0.443l7.818,6.762l-6.115-10.59c-0.068,0.016-0.143,0.021-0.218,0.021
		C15.929,17.127,15.862,17.121,15.796,17.113z M22.798,29.201l-8.832-7.633c-0.184,0.105-0.388,0.16-0.612,0.16
		c-0.074,0-0.147-0.008-0.218-0.021l-4.138,7.148c0.097,0.114,0.17,0.238,0.218,0.373h13.566
		C22.79,29.22,22.794,29.211,22.798,29.201z M13.573,19.273l1.484-2.584c-0.097-0.111-0.169-0.232-0.218-0.365H9.217
		c-0.003,0.01-0.008,0.02-0.014,0.028l3.54,3.062c0.184-0.107,0.388-0.162,0.612-0.162C13.429,19.252,13.502,19.259,13.573,19.273z
		 M12.201,20.047l-3.546-3.061c-0.06,0.031-0.12,0.062-0.184,0.084v11.012l3.94-6.797c-0.197-0.229-0.296-0.492-0.296-0.795
		C12.117,20.33,12.144,20.184,12.201,20.047z M7.176,16.775c-0.136-0.137-0.233-0.285-0.295-0.451h-5.6
		c-0.05,0.133-0.125,0.258-0.226,0.375l6.572,11.377V17.072C7.462,17.01,7.313,16.91,7.176,16.775z"/>
</g>
</svg>
