<?xml version="1.0" encoding="UTF-8"?>
<svg width="32px" height="32px" viewBox="0 0 32 32" version="1.1" xmlns="http://www.w3.org/2000/svg" xmlns:xlink="http://www.w3.org/1999/xlink">
    <!-- Generator: Sketch 56.3 (81716) - https://sketch.com -->
    <title>svg/color/ten</title>
    <desc>Created with Sketch.</desc>
    <g id="color/ten" stroke="none" stroke-width="1" fill="none" fill-rule="evenodd">
        <circle id="Oval" fill="#0080BD" fill-rule="nonzero" cx="16" cy="16" r="16"></circle>
        <path d="M25.09345,11.7118307 C25.613225,11.5848479 26,11.1003766 26,10.5207786 C26,9.84514 25.4729213,9.29693624 24.8228511,9.29693624 C24.4852883,9.29693624 24.1814418,9.44498921 23.9664214,9.68207283 L17.1272483,5.57572678 C17.1591484,5.46421 17.1769097,5.34613519 17.1769097,5.22384235 C17.1769097,4.54773174 16.6498408,4 16.0002197,4 C15.3501495,4 14.8230903,4.54773174 14.8230903,5.22384235 C14.8230903,5.34613519 14.8408516,5.46421 14.8727419,5.57572678 L8.0335688,9.68207283 C7.81900735,9.44498921 7.51470191,9.29693624 7.17713916,9.29693624 C6.52706893,9.29693624 6,9.84514 6,10.5207786 C6,11.1003766 6.38722415,11.5848479 6.9065402,11.7118307 L6.9065402,19.9245329 C6.38722415,20.0515158 6,20.5364691 6,21.1155851 C6,21.7912236 6.52706893,22.3394274 7.17713916,22.3394274 C7.51470191,22.3394274 7.81900735,22.1913744 8.0335688,21.9547528 L14.8727419,26.0606369 C14.8408516,26.1721436 14.8230903,26.2902284 14.8230903,26.4129833 C14.8230903,27.0886319 15.3501495,27.6363636 16.0002197,27.6363636 C16.6498408,27.6363636 17.1769097,27.0886319 17.1769097,26.4129833 C17.1769097,26.2902284 17.1591484,26.1721436 17.1272483,26.0606369 L23.9664214,21.9547528 C24.1814418,22.1913744 24.4852883,22.3394274 24.8228511,22.3394274 C25.4729213,22.3394274 26,21.7912236 26,21.1155851 C26,20.5364691 25.613225,20.0515158 25.09345,19.9245329 L25.09345,11.7118307 Z M24.6219597,10.0751936 L24.6219597,10.0751936 C24.6365378,10.0686355 24.6511062,10.0620674 24.6661433,10.0564534 C24.6670514,10.0559814 24.6684282,10.0559814 24.6697854,10.0555094 C24.6770696,10.0526974 24.6848225,10.0498854 24.6921067,10.0475453 C24.7016757,10.0452053 24.7112448,10.0423933 24.7208138,10.0400533 C24.725364,10.0391193 24.730832,10.0381753 24.7358411,10.0367693 C24.7476852,10.0349013 24.7599883,10.0325512 24.7718324,10.0311553 C24.7745665,10.0311553 24.7768415,10.0306732 24.7795756,10.0306732 C24.7937045,10.0292772 24.8082729,10.0283433 24.8228511,10.0283433 C25.0838908,10.0283433 25.2966263,10.2494887 25.2966263,10.5207786 C25.2966263,10.5362447 25.2957182,10.5512388 25.2943414,10.5657609 C25.2938923,10.5690449 25.2938923,10.5723189 25.2934333,10.575131 C25.2920663,10.5891911 25.2902404,10.6032411 25.2875162,10.6173013 C25.2870572,10.6201133 25.2861394,10.6229253 25.2856902,10.6257373 C25.2829562,10.6379194 25.2802222,10.6501015 25.2765801,10.6618116 C25.275672,10.6641516 25.2752131,10.6669636 25.2747542,10.6693136 C25.2706532,10.6819577 25.266103,10.6941398 25.2615528,10.7063218 C25.2597269,10.7105399 25.2583599,10.7142859 25.2565339,10.7185039 C25.2515248,10.729752 25.2465157,10.7414621 25.2405888,10.7522482 C25.2387726,10.7564662 25.2364877,10.7597402 25.2346716,10.7639583 C25.2301116,10.7719223 25.2255517,10.7794143 25.2205524,10.7873784 C25.2178086,10.7916065 25.2155335,10.7962865 25.2123503,10.8005045 C25.2064234,10.8098746 25.1995883,10.8187726 25.1927631,10.8276807 C25.189121,10.8328327 25.1854691,10.8375228 25.1813681,10.8422028 C25.1768179,10.8478268 25.171799,10.8529789 25.1672489,10.8586029 C25.1604138,10.8656229 25.1535788,10.872653 25.1467535,10.8792211 C25.1421936,10.8839011 25.1376336,10.8881191 25.1326343,10.8928091 C25.1276154,10.8970171 25.1226063,10.9017172 25.1171383,10.9063972 C25.1093952,10.9129553 25.1016521,10.9190513 25.09345,10.9246653 C25.0169172,10.9804338 24.9235311,11.013696 24.8228511,11.013696 C24.5618212,11.013696 24.3490856,10.7925405 24.3490856,10.5207786 C24.3490856,10.3239872 24.4611509,10.1543821 24.6219597,10.0751936 L24.6219597,10.0751936 Z M16.8384291,6.09581031 C16.854384,6.07942024 16.8785312,6.07612616 16.8976595,6.08738429 L23.6958225,10.1688942 C23.663483,10.2804109 23.6461611,10.3984857 23.6461611,10.5207786 C23.6461611,10.6430714 23.663483,10.7611462 23.6958225,10.873125 L21.2681945,12.330315 C21.0531839,12.0936933 20.7488784,11.9456303 20.4117648,11.9456303 C20.2937727,11.9456303 20.1803502,11.9639085 20.0728351,11.9976427 L16.830686,6.15719275 C16.8197597,6.13751863 16.8229429,6.11222047 16.8384291,6.09581031 L16.8384291,6.09581031 Z M20.8832552,13.211181 L20.8832552,13.211181 C20.881898,13.2243071 20.880072,13.2374232 20.8782559,13.2505393 C20.8777969,13.2524173 20.8777969,13.2547673 20.877338,13.2566353 C20.8750532,13.2692794 20.8723289,13.2819335 20.869136,13.2941156 C20.868677,13.2959936 20.868677,13.2978716 20.867769,13.2997396 C20.8645858,13.3123837 20.8604848,13.3250378 20.8563838,13.3372198 C20.8559346,13.3381639 20.8554757,13.3395699 20.8554757,13.3405039 C20.8509157,13.3531479 20.8454477,13.365802 20.8399894,13.3784561 C20.7643647,13.5457213 20.6008219,13.6623901 20.4117648,13.6623901 C20.3848836,13.6623901 20.3589203,13.6591161 20.3338748,13.654898 C20.3315899,13.654426 20.3297737,13.654426 20.3279381,13.653964 C20.3156448,13.651624 20.3033515,13.648802 20.2915073,13.645528 L20.2864885,13.644122 C20.2741854,13.6403759 20.2618921,13.6366199 20.250048,13.6319399 C20.2491399,13.6319399 20.248222,13.6314679 20.247314,13.6309958 C20.0669179,13.5611874 19.9379994,13.3812682 19.9379994,13.1694827 C19.9379994,13.1418345 19.9402745,13.1151303 19.9448247,13.0884262 C19.9452836,13.0865481 19.9452836,13.0846701 19.9457425,13.0823301 C19.9480176,13.069686 19.9507516,13.0574939 19.9539446,13.0448499 C19.9543937,13.0429718 19.9548429,13.0411038 19.9553018,13.0396878 C19.9584947,13.0265717 19.9625958,13.0139277 19.9666968,13.0017456 C19.9671459,13.0008015 19.9676049,12.9998675 19.9680638,12.9989336 C19.9726237,12.9858074 19.9776231,12.9731533 19.9830911,12.9609713 L19.9830911,12.9605093 C20.0587159,12.7932341 20.2222587,12.6770373 20.4117648,12.6770373 C20.424976,12.6770373 20.4381871,12.6779713 20.4518572,12.6789154 C20.4641505,12.6803113 20.4769125,12.6821894 20.4892155,12.6840674 C20.4910317,12.6845294 20.4933166,12.6845294 20.4951327,12.6850014 C20.5074358,12.6873414 20.5192799,12.6906254 20.5311241,12.6934274 L20.5365823,12.6948435 C20.5488854,12.6985895 20.5611884,12.7023455 20.5730326,12.7070255 C20.5739504,12.7074875 20.5748487,12.7079595 20.5757666,12.7079595 C20.7561626,12.777778 20.8850811,12.9581592 20.8850811,13.1694827 C20.8850811,13.1835328 20.884173,13.1975929 20.8832552,13.211181 L20.8832552,13.211181 Z M19.2842871,13.5213571 L16.8562099,14.9790191 C16.7013086,14.8075259 16.498601,14.6828931 16.2703597,14.6271246 L16.2703597,6.46409486 C16.2703597,6.4411367 16.2854066,6.42099057 16.30681,6.41489451 C16.3286723,6.40879845 16.3509936,6.41864053 16.3619296,6.43878666 L19.6045279,12.2792466 C19.3772142,12.5022701 19.2346355,12.8185323 19.2346355,13.1694827 C19.2346355,13.2917756 19.2519379,13.4098403 19.2842871,13.5213571 L19.2842871,13.5213571 Z M16.4739949,21.0860588 C16.4739949,21.2041336 16.4339123,21.3123664 16.3669387,21.397179 C16.3637556,21.400925 16.3610216,21.404681 16.3578286,21.4084271 C16.3523704,21.4149851 16.3464434,21.4215532 16.3409754,21.4276392 C16.3364154,21.4323192 16.3318653,21.4374712 16.3268562,21.4416893 C16.3222962,21.4463693 16.317746,21.4505873 16.3131861,21.4552874 C16.2293593,21.5321259 16.1200378,21.5789762 16.0002197,21.5789762 C15.8995494,21.5789762 15.8061536,21.545714 15.7296305,21.4899456 L15.7291716,21.4899456 C15.7145934,21.4791795 15.7000153,21.4669975 15.6868041,21.4548053 C15.682254,21.4505873 15.677694,21.4463693 15.6731341,21.4421613 C15.6685937,21.4374712 15.6635748,21.4323192 15.6590148,21.4271672 C15.6535566,21.4215532 15.6485377,21.4159291 15.6435286,21.4098331 C15.5710968,21.3231525 15.5264543,21.2102297 15.5264543,21.0860588 C15.5264543,20.9754861 15.5619867,20.8738013 15.6216663,20.7913488 C15.6216663,20.7908869 15.6221252,20.7904148 15.6225744,20.7899428 C15.6321434,20.7768167 15.6421616,20.7641626 15.6526387,20.7524525 C15.6535566,20.7515286 15.6544549,20.7505845 15.6549138,20.7496405 C15.6658499,20.7379304 15.6767762,20.7271544 15.6881711,20.7163783 C15.6890792,20.7154443 15.6899971,20.7149723 15.6909052,20.7140383 C15.7738141,20.6390678 15.8817881,20.5936235 16.0002197,20.5936235 C16.1182119,20.5936235 16.2261761,20.6390678 16.3090851,20.7140383 C16.3104521,20.7149723 16.3113699,20.7159163 16.3122682,20.7168503 C16.3236632,20.7271544 16.3345993,20.7384025 16.3450764,20.7501125 L16.3478104,20.7529246 C16.3582876,20.7646447 16.3683155,20.7772887 16.3778748,20.7904148 C16.3783337,20.7908869 16.3787829,20.7913488 16.3787829,20.7918108 C16.3888011,20.8053989 16.397921,20.819931 16.4065819,20.8344531 C16.4489494,20.9084896 16.4739949,20.9942262 16.4739949,21.0860588 L16.4739949,21.0860588 Z M12.3954623,12.2792466 L15.6380704,6.43878666 C15.6489966,6.41864053 15.6717768,6.40879845 15.6931802,6.41489451 C15.7145934,6.42099057 15.7296305,6.4411367 15.7296305,6.46409486 L15.7296305,14.6271246 C15.5013892,14.6828931 15.2991406,14.8075259 15.1437901,14.9790191 L12.7161621,13.5213571 C12.7480524,13.4098403 12.7653645,13.2917756 12.7653645,13.1694827 C12.7653645,12.8185323 12.6232349,12.5022701 12.3954623,12.2792466 L12.3954623,12.2792466 Z M15.1437901,16.6573546 C15.2991406,16.8288377 15.5013892,16.9534706 15.7296305,17.009229 L15.7296305,19.8954787 C15.2877456,20.0032494 14.9419906,20.3701179 14.8485947,20.8335191 L8.37933359,20.8283571 C8.35701233,20.8283571 8.337884,20.812901 8.33195705,20.7908869 C8.32603986,20.7683806 8.33560891,20.7444985 8.35473724,20.7332504 L15.1437901,16.6573546 Z M15.5264543,15.8181868 C15.5264543,15.546425 15.7387406,15.3257415 16.0002197,15.3257415 C16.2612594,15.3257415 16.4739949,15.546425 16.4739949,15.8181868 C16.4739949,16.0894667 16.2612594,16.3106222 16.0002197,16.3106222 C15.7387406,16.3106222 15.5264543,16.0894667 15.5264543,15.8181868 L15.5264543,15.8181868 Z M15.5282704,5.18214408 L15.5282704,5.18214408 C15.5296374,5.16762199 15.5314634,5.1530999 15.5337385,5.13903979 C15.5341974,5.13716176 15.5341974,5.13622777 15.5346563,5.13482176 C15.5369314,5.12123366 15.5396556,5.10811759 15.5433075,5.09546349 C15.5437567,5.09312348 15.5442156,5.09078348 15.5451334,5.08844347 C15.5483166,5.07625135 15.5524176,5.06454128 15.5565186,5.05283122 C15.5574267,5.04954718 15.5583446,5.04719713 15.5592527,5.04439515 C15.5638028,5.03314706 15.5683628,5.02237099 15.5733816,5.01159492 C15.5747389,5.00831088 15.5761059,5.00503688 15.5779221,5.00175284 C15.5829409,4.99144879 15.58795,4.98160671 15.5934181,4.97223665 C15.5956931,4.96848059 15.5979682,4.96473457 15.5998039,4.96098856 C15.6052622,4.95209052 15.6111891,4.94318243 15.6171063,4.93475641 C15.6202895,4.93100035 15.6225744,4.92679236 15.6257673,4.9230363 C15.6316845,4.91507225 15.6376114,4.9071082 15.6439875,4.89960613 C15.6476296,4.89539814 15.6512717,4.89164208 15.6549138,4.88789606 C15.6608408,4.88086601 15.6676758,4.87384599 15.6740519,4.86727791 C15.6786119,4.86306992 15.6827031,4.85931386 15.6868041,4.85510587 C15.6936392,4.84900981 15.7000153,4.84291375 15.7068503,4.8372897 C15.7118594,4.83354369 15.7168783,4.82979767 15.7218874,4.82557964 C15.7287224,4.82088959 15.7355477,4.8157476 15.7423827,4.81105755 C15.7483097,4.80683952 15.7542269,4.80356552 15.7596949,4.79980946 C15.7665299,4.79559143 15.773365,4.79138344 15.7806491,4.78762738 C15.7870253,4.78435338 15.7934111,4.78106934 15.8002364,4.7777853 C15.8070714,4.77450126 15.8134475,4.77122726 15.8207415,4.76795327 C15.8280257,4.76514124 15.8353196,4.76232922 15.8430628,4.7595172 C15.8494389,4.75717719 15.8562641,4.75436517 15.8630992,4.75248714 C15.8713012,4.74967512 15.8795032,4.74780713 15.8881642,4.74545709 C15.8945306,4.74406112 15.9009164,4.74217305 15.9072925,4.74077708 C15.9168518,4.73842703 15.9268798,4.73749304 15.936898,4.73608703 C15.9423758,4.73515303 15.9473751,4.734209 15.9528432,4.73374702 C15.9678802,4.73186899 15.9833665,4.73139698 15.9988625,4.730935 L16.0002197,4.730935 C16.0006786,4.730935 16.0011375,4.730935 16.0011375,4.73139698 C16.0166238,4.73139698 16.03211,4.73186899 16.0471471,4.73374702 C16.0526151,4.734209 16.0580734,4.73515303 16.0635512,4.73608703 C16.0731104,4.73749304 16.0831384,4.73842703 16.0931566,4.74077708 C16.0995327,4.74217305 16.1059186,4.74406112 16.1118358,4.74545709 C16.120487,4.74780713 16.128689,4.74967512 16.1368911,4.75248714 C16.1437261,4.75436517 16.1505611,4.75717719 16.1569275,4.7595172 C16.1646706,4.76232922 16.1724235,4.76514124 16.1797077,4.76795327 C16.1865525,4.77122726 16.1929188,4.77450126 16.1997538,4.7777853 C16.2065889,4.78106934 16.2134141,4.78435338 16.2198,4.78762738 C16.226635,4.79138344 16.2334603,4.79559143 16.2402954,4.79980946 C16.2462223,4.80356552 16.2521395,4.80683952 16.2576075,4.81105755 C16.2649015,4.8157476 16.2712776,4.82088959 16.2781028,4.82557964 C16.2831217,4.82979767 16.2881308,4.83354369 16.2931399,4.8372897 C16.299975,4.84291375 16.3063511,4.84900981 16.3131861,4.85510587 C16.3172871,4.85885189 16.3218471,4.86306992 16.3259481,4.86727791 C16.3327733,4.87384599 16.3391495,4.88086601 16.3450764,4.88743409 C16.3491774,4.89164208 16.3528195,4.89539814 16.3560125,4.89960613 C16.3623886,4.9071082 16.3683155,4.91507225 16.3742327,4.9230363 C16.3774159,4.92679236 16.3801597,4.93100035 16.3828839,4.93475641 C16.3888011,4.94318243 16.394728,4.95209052 16.4001961,4.96098856 C16.4024809,4.96473457 16.4042971,4.96848059 16.4065819,4.97223665 C16.4120402,4.98160671 16.4175082,4.99144879 16.4220682,5.00129087 C16.4238843,5.00503688 16.4252513,5.00831088 16.4270675,5.01159492 C16.4316275,5.02237099 16.4366463,5.03314706 16.4407473,5.04393318 C16.4416457,5.04719713 16.4425635,5.0500192 16.4439305,5.05283122 C16.4480315,5.06454128 16.4516736,5.07625135 16.4553157,5.08844347 C16.4557747,5.09078348 16.4562336,5.09312348 16.4571417,5.09546349 C16.4603346,5.10811759 16.4630686,5.12123366 16.4657929,5.13435978 C16.4657929,5.13622777 16.4662518,5.13763378 16.4662518,5.13903979 C16.4685269,5.1530999 16.4703528,5.16716001 16.4717198,5.18214408 C16.4730868,5.19573217 16.4739949,5.20979228 16.4739949,5.22384235 C16.4739949,5.49560423 16.2612594,5.71628772 16.0002197,5.71628772 C15.7387406,5.71628772 15.5264543,5.49560423 15.5264543,5.22384235 C15.5264543,5.20979228 15.5273623,5.19573217 15.5282704,5.18214408 L15.5282704,5.18214408 Z M15.1023307,6.08738429 C15.1214688,6.07612616 15.1460651,6.07942024 15.1615611,6.09581031 C15.1770474,6.11222047 15.1802403,6.13751863 15.1693043,6.15719275 L11.9271551,11.9976427 C11.8196498,11.9639085 11.7062176,11.9456303 11.5886843,11.9456303 C11.2511118,11.9456303 10.9468064,12.0936933 10.7322547,12.330315 L8.30462668,10.873125 C8.33650723,10.7611462 8.35382916,10.6430714 8.35382916,10.5207786 C8.35382916,10.3984857 8.33650723,10.2804109 8.30462668,10.1688942 L15.1023307,6.08738429 Z M11.7895757,13.6150677 L11.7895757,13.6150677 C11.7777316,13.6206918 11.7654285,13.6263158 11.752686,13.6309958 C11.7517682,13.6314679 11.7508601,13.6319399 11.7499423,13.6319399 C11.7380981,13.6366199 11.7262638,13.6403759 11.7139607,13.644122 C11.7121348,13.6445839 11.7103186,13.645056 11.7084927,13.645528 C11.6966485,13.648802 11.6843552,13.651624 11.6725111,13.653964 C11.6702263,13.654426 11.6684101,13.654426 11.6665744,13.654898 C11.64107,13.6591161 11.6151066,13.6623901 11.5886843,13.6623901 C11.3991781,13.6623901 11.2360845,13.5457213 11.1604597,13.3784561 C11.1545425,13.365802 11.1495334,13.3531479 11.1449735,13.3405039 C11.1445146,13.3390979 11.1440752,13.3381639 11.1436162,13.3372198 C11.1395152,13.3250378 11.1354142,13.3123837 11.1322213,13.2997396 L11.1308543,13.2941156 C11.1276711,13.2819335 11.1249371,13.2692794 11.1231112,13.2566353 C11.1226522,13.2547673 11.1221933,13.2524173 11.1217441,13.2500672 C11.119928,13.2374232 11.1180923,13.2243071 11.116735,13.211181 C11.115827,13.1975929 11.1149091,13.1835328 11.1149091,13.1694827 C11.1149091,12.9726914 11.2269744,12.8030762 11.3877832,12.7238876 C11.3996273,12.7182736 11.4119304,12.7126496 11.4246826,12.7079595 C11.4256004,12.7079595 11.4265085,12.7074875 11.4269577,12.7070255 C11.4392607,12.7023455 11.4511049,12.6985895 11.4634079,12.6948435 L11.4688662,12.6934274 C11.4807201,12.6906254 11.4925642,12.6873414 11.5048673,12.6850014 C11.5066834,12.6845294 11.5089683,12.6845294 11.5107845,12.6840674 C11.5230875,12.6821894 11.5358397,12.6803113 11.548592,12.6793773 L11.548592,12.6789154 C11.5618031,12.6779713 11.5750142,12.6770373 11.5886843,12.6770373 C11.7918508,12.6770373 11.9654216,12.8110402 12.0323854,12.9989336 C12.0328443,12.9998675 12.0333032,13.0008015 12.0333032,13.0017456 C12.0378534,13.0139277 12.0415053,13.0265717 12.0446884,13.0392258 C12.0456063,13.0411038 12.0460554,13.0429718 12.0465046,13.0448499 C12.0497073,13.0574939 12.0524315,13.069686 12.0542477,13.0823301 C12.0547066,13.0846701 12.0551656,13.0865481 12.0551656,13.0888881 C12.0597255,13.1151303 12.0624497,13.1418345 12.0624497,13.1694827 C12.0624497,13.3662741 11.9503943,13.5363612 11.7895757,13.6150677 L11.7895757,13.6150677 Z M6.83320029,10.8586029 C6.82819119,10.8529789 6.82363125,10.8478268 6.81908107,10.8422028 C6.81498005,10.8375228 6.81087903,10.8328327 6.80723693,10.8276807 C6.8004019,10.8187726 6.79402579,10.8098746 6.78763992,10.8005045 C6.78491567,10.7962865 6.78218165,10.7920684 6.77943788,10.7873784 C6.77443854,10.7794143 6.7698786,10.7719223 6.76577758,10.7634963 C6.76350249,10.7597402 6.76121763,10.7564662 6.75940147,10.7527102 C6.75347452,10.7414621 6.74847518,10.729752 6.74345631,10.7185039 C6.74163038,10.7142859 6.74027314,10.7105399 6.73844721,10.7067939 C6.73388726,10.6941398 6.72933708,10.6819577 6.72569499,10.6693136 C6.72477714,10.6669636 6.72432798,10.6641516 6.72341013,10.6618116 C6.71976804,10.6501015 6.71703403,10.6379194 6.71430978,10.6257373 C6.71385085,10.6229253 6.71339193,10.6201133 6.71248385,10.6173013 C6.71020876,10.6032411 6.7079239,10.5891911 6.7065569,10.575131 C6.70610774,10.5723189 6.70610774,10.5690449 6.70564881,10.5657609 C6.70428181,10.5512388 6.70336396,10.5362447 6.70336396,10.5207786 C6.70336396,10.2494887 6.91611901,10.0283433 7.17713916,10.0283433 C7.19171731,10.0283433 7.20629546,10.0292772 7.22086384,10.0306732 C7.22314869,10.0306732 7.22542378,10.0311553 7.22816756,10.0311553 C7.24046086,10.0325512 7.25230499,10.0349013 7.26414913,10.0367693 C7.26961716,10.0381753 7.27462626,10.0391193 7.27963536,10.0400533 C7.28920441,10.0423933 7.29831453,10.0452053 7.30788358,10.0475453 C7.31562669,10.0498854 7.32292065,10.0526974 7.33020484,10.0555094 C7.33156208,10.0559814 7.33293885,10.0559814 7.33384694,10.0564534 C7.34888401,10.0620674 7.36392108,10.0681635 7.37804031,10.0751936 C7.53884911,10.1543821 7.65090459,10.3239872 7.65090459,10.5207786 C7.65090459,10.7925405 7.43861823,11.013696 7.17713916,11.013696 C7.07645912,11.013696 6.98307304,10.9804338 6.90609104,10.9246653 C6.89833816,10.9185793 6.89059504,10.9124833 6.88285193,10.9063972 C6.87785259,10.9017172 6.8723748,10.8970171 6.8673657,10.8928091 C6.86235659,10.8881191 6.85780641,10.8839011 6.85324647,10.8792211 C6.84641144,10.872653 6.8395764,10.8656229 6.83320029,10.8586029 L6.83320029,10.8586029 Z M7.37804031,21.5611701 L7.37804031,21.5611701 C7.36392108,21.5677281 7.34888401,21.5742962 7.33384694,21.5799102 C7.33293885,21.5803822 7.33156208,21.5808542 7.33020484,21.5813263 C7.32292065,21.5841282 7.31562669,21.5860063 7.30788358,21.5883463 C7.29831453,21.5916303 7.28920441,21.5939603 7.27963536,21.5963103 C7.27462626,21.5972544 7.26961716,21.5981783 7.26414913,21.5995944 C7.25230499,21.6019243 7.24046086,21.6038124 7.22816756,21.6052184 C7.22542378,21.6052184 7.22314869,21.6056804 7.22086384,21.6056804 C7.20629546,21.6070864 7.19171731,21.6080204 7.17713916,21.6080204 C6.91611901,21.6080204 6.70336396,21.3873369 6.70336396,21.1155851 C6.70336396,21.1001189 6.70428181,21.0855968 6.70564881,21.0706027 C6.70610774,21.0673187 6.70610774,21.0645167 6.7065569,21.0612327 C6.7079239,21.0471726 6.71020876,21.0331225 6.71248385,21.0190624 C6.71339193,21.0162504 6.71385085,21.0134383 6.71430978,21.0106364 C6.71703403,20.9984442 6.71976804,20.9862622 6.72341013,20.9745521 C6.72432798,20.972202 6.72477714,20.9694001 6.72569499,20.9670601 C6.72933708,20.954406 6.73388726,20.9422239 6.73844721,20.9300418 C6.74027314,20.9258238 6.74163038,20.9220777 6.74345631,20.9178497 C6.74847518,20.9066116 6.75347452,20.8949016 6.75940147,20.8841154 C6.76121763,20.8803694 6.76350249,20.8766234 6.76577758,20.8724054 C6.7698786,20.8644413 6.77443854,20.8569493 6.77943788,20.8489852 C6.78218165,20.8447572 6.78491567,20.8400772 6.78763992,20.8358591 C6.79402579,20.8264891 6.8004019,20.817591 6.80723693,20.8086829 C6.81087903,20.8035209 6.81498005,20.7988509 6.81908107,20.7941609 C6.82363125,20.7885368 6.82819119,20.7833848 6.83320029,20.7777607 C6.8395764,20.7707407 6.84641144,20.7637006 6.85324647,20.7566706 C6.85780641,20.7524525 6.86235659,20.7482445 6.8673657,20.7440265 C6.8723748,20.7393465 6.87739367,20.7346464 6.88285193,20.7299664 C6.89059504,20.7238804 6.89879708,20.7173123 6.9065402,20.7116983 C6.98353196,20.6559299 7.07645912,20.6226777 7.17713916,20.6226777 C7.43861823,20.6226777 7.65090459,20.8438232 7.65090459,21.1155851 C7.65090459,21.3123664 7.53884911,21.4819815 7.37804031,21.5611701 L7.37804031,21.5611701 Z M7.53930803,19.9006407 C7.53018814,19.9165688 7.51424299,19.9259389 7.49694059,19.9259389 C7.49238065,19.9259389 7.48827963,19.9254769 7.48417861,19.9245329 C7.46277519,19.9184469 7.44773812,19.8978287 7.44773812,19.8748706 L7.44773812,11.7118307 C7.67596963,11.6560724 7.87823779,11.5314395 8.0335688,11.3599564 L10.4611968,12.8175983 C10.4293065,12.9291151 10.4115452,13.0471899 10.4115452,13.1694827 C10.4115452,13.5208951 10.5541337,13.8371673 10.7819063,14.0601908 L7.53930803,19.9006407 Z M8.05042204,20.2581392 C8.03767958,20.2581392 8.02537652,20.2534592 8.01580748,20.2436171 C7.99986232,20.227217 7.99667915,20.2019188 8.00806436,20.1817626 L11.2502135,14.3417847 C11.3572696,14.375057 11.471151,14.3933251 11.5886843,14.3933251 C11.9262471,14.3933251 12.2305525,14.2452721 12.4451237,14.0086504 L14.8727419,15.4663024 C14.8408516,15.5778192 14.8230903,15.695884 14.8230903,15.8181868 C14.8230903,15.9404696 14.8408516,16.0585545 14.8727419,16.1700612 L8.07502816,20.2515811 C8.06728504,20.2562611 8.05862408,20.2581392 8.05042204,20.2581392 L8.05042204,20.2581392 Z M15.1437901,25.5738155 L8.33605807,21.4861996 C8.32012268,21.4768295 8.31146172,21.4590334 8.31190329,21.4402832 C8.31373681,21.4327912 8.31602166,21.4252992 8.31783783,21.4177971 C8.32603986,21.401397 8.34243418,21.3910829 8.36065443,21.3910829 L14.8613567,21.396245 C14.9706782,21.8324599 15.3059659,22.1735583 15.7296305,22.277111 L15.7296305,25.2219311 C15.5013892,25.2776895 15.2991406,25.4023223 15.1437901,25.5738155 L15.1437901,25.5738155 Z M16.4717198,26.4546916 L16.4717198,26.4546916 C16.4703528,26.4687416 16.4685269,26.4832537 16.4662518,26.4973238 C16.4662518,26.4987198 16.4657929,26.5005978 16.4657929,26.5020139 C16.4630686,26.51513 16.4603346,26.5282461 16.4571417,26.5409002 C16.4562336,26.5432402 16.4557747,26.5455802 16.4553157,26.5479202 C16.4516736,26.5601123 16.4480315,26.5718224 16.4439305,26.5835324 C16.4425635,26.5863444 16.4416457,26.5896184 16.4407473,26.5924305 C16.4366463,26.6032166 16.4316275,26.6139926 16.4270675,26.6247587 C16.4252513,26.6280427 16.4238843,26.6313268 16.4220682,26.6350828 C16.4175082,26.6449148 16.4120402,26.6547569 16.4065819,26.6641169 C16.4042971,26.667873 16.4024809,26.671619 16.4001961,26.675365 C16.394728,26.6842731 16.3888011,26.6931812 16.3828839,26.7016072 C16.3801597,26.7058253 16.3774159,26.7095713 16.3742327,26.7133273 C16.3683155,26.7212914 16.3623886,26.7292454 16.3560125,26.7367475 C16.3528195,26.7409655 16.3491774,26.7447115 16.3455353,26.7489295 C16.3391495,26.7559596 16.3327733,26.7625176 16.3259481,26.7690757 C16.3218471,26.7732937 16.3172871,26.7775117 16.3131861,26.7812578 C16.3063511,26.7873538 16.299975,26.7934398 16.2931399,26.7990739 C16.2881308,26.8028199 16.2831217,26.806566 16.2781028,26.810784 C16.2712776,26.815926 16.2649015,26.820616 16.2576075,26.8257781 C16.2521395,26.8295241 16.2462223,26.8332701 16.2402954,26.8365542 C16.2334603,26.8407622 16.226635,26.8449802 16.2198,26.8487262 C16.2129747,26.8524823 16.2065889,26.8552843 16.1997538,26.8585683 C16.1929188,26.8623143 16.1865525,26.8651364 16.1797077,26.8684104 C16.1724235,26.8716944 16.1642214,26.8744964 16.1569275,26.8768464 C16.1505611,26.8791864 16.1437261,26.8819985 16.1373402,26.8843385 C16.128689,26.8866785 16.1200378,26.8890386 16.1113769,26.8909065 C16.1054597,26.8927846 16.0990738,26.8941705 16.0931566,26.8955866 C16.0831384,26.8979266 16.0726515,26.8993326 16.0626333,26.9007486 C16.0576242,26.9012206 16.0526151,26.9021446 16.0471471,26.9030886 C16.0316511,26.9044946 16.0161649,26.9054186 16.0002197,26.9054186 C15.9842843,26.9054186 15.9683392,26.9044946 15.9528432,26.9030886 C15.9478341,26.9021446 15.9428249,26.9012206 15.9373569,26.9007486 C15.9273387,26.8993326 15.9168518,26.8979266 15.9068336,26.8955866 C15.9009164,26.8941705 15.8949895,26.8927846 15.8886134,26.8909065 C15.8799622,26.8885565 15.8713012,26.8866785 15.8630992,26.8843385 C15.8562641,26.8819985 15.8498978,26.8791864 15.8430628,26.8768464 C15.8357688,26.8744964 15.8280257,26.8716944 15.8207415,26.8684104 C15.8138967,26.8651364 15.8070714,26.8623143 15.8006953,26.8585683 C15.7934111,26.8552843 15.7870253,26.8524823 15.7801902,26.8487262 C15.773365,26.8449802 15.7665299,26.8407622 15.760144,26.8365542 C15.7542269,26.8327981 15.7483097,26.8295241 15.7423827,26.8257781 C15.7355477,26.820616 15.7287224,26.815926 15.7218874,26.810784 C15.7168783,26.806566 15.7118594,26.8028199 15.7068503,26.7990739 C15.7000153,26.7934398 15.6936392,26.7873538 15.6868041,26.7812578 C15.6827031,26.7770397 15.6786119,26.7732937 15.6740519,26.7690757 C15.6676758,26.7625176 15.6608408,26.7559596 15.6549138,26.7484676 C15.6512717,26.7447115 15.6476296,26.7409655 15.6439875,26.7367475 C15.6380704,26.7292454 15.6316845,26.7212914 15.6257673,26.7133273 C15.6225744,26.7095713 15.6202895,26.7058253 15.6175653,26.7016072 C15.6111891,26.6931812 15.6052622,26.6842731 15.5998039,26.675365 C15.5979682,26.671619 15.5956931,26.668335 15.5934181,26.664599 C15.58795,26.6547569 15.5829409,26.6449148 15.5779221,26.6346108 C15.5761059,26.6313268 15.5747389,26.6285147 15.5733816,26.6252307 C15.5683628,26.6144546 15.5638028,26.6032166 15.5592527,26.5919785 C15.5583446,26.5896184 15.5574267,26.5868165 15.5565186,26.5840044 C15.5524176,26.5722944 15.5483166,26.5601123 15.5451334,26.5479202 C15.5442156,26.5455802 15.5437567,26.5432402 15.5433075,26.5413621 C15.5401146,26.5282461 15.5369314,26.51513 15.5346563,26.5020139 C15.5341974,26.5005978 15.5341974,26.4991918 15.5341974,26.4977959 C15.5291785,26.4701477 15.5264543,26.4420274 15.5264543,26.4129833 C15.5264543,26.1412314 15.7387406,25.9200659 16.0002197,25.9200659 C16.2612594,25.9200659 16.4739949,26.1412314 16.4739949,26.4129833 C16.4739949,26.4265714 16.4730868,26.4406315 16.4717198,26.4546916 L16.4717198,26.4546916 Z M23.6448038,21.4979096 L16.8562099,25.5738155 C16.7013086,25.4023223 16.498601,25.2776895 16.2703597,25.2219311 L16.2703597,22.277111 C16.6935655,22.1740303 17.0283942,21.8333939 17.1386433,21.397651 L23.6206566,21.402803 C23.642519,21.402803 23.662116,21.4182591 23.6680429,21.4402832 C23.6735012,21.4627794 23.6644009,21.4861996 23.6448038,21.4979096 L23.6448038,21.4979096 Z M23.6821622,20.814779 C23.6735012,20.8302451 23.6575561,20.8400772 23.6397947,20.8400772 L17.1518544,20.8349151 C17.0589175,20.371062 16.7131625,20.0032494 16.2703597,19.8954787 L16.2703597,17.009229 C16.498601,16.9534706 16.7008594,16.8288377 16.8562099,16.6573546 L23.6644009,20.7444985 C23.6798773,20.7538585 23.6889874,20.7712027 23.6889874,20.7889988 C23.6867124,20.7974348 23.6839783,20.805881 23.6821622,20.814779 L23.6821622,20.814779 Z M23.9841828,20.2436171 C23.9750726,20.2534592 23.9623204,20.2581392 23.9495682,20.2581392 C23.9413662,20.2581392 23.932715,20.2562611 23.925421,20.2515811 L17.1272483,16.1700612 C17.1591484,16.0585545 17.1769097,15.9404696 17.1769097,15.8181868 C17.1769097,15.695884 17.1595975,15.5778192 17.1272483,15.4663024 L19.5553352,14.0086504 C19.7694377,14.2452721 20.0737529,14.3933251 20.4117648,14.3933251 C20.5292981,14.3933251 20.6427401,14.375057 20.7497768,14.3417847 L23.9923848,20.1817626 C24.0033111,20.2019188 24.0001279,20.227217 23.9841828,20.2436171 L23.9841828,20.2436171 Z M21.2185429,14.0601908 C21.4458663,13.8371673 21.5884548,13.5208951 21.5884548,13.1694827 C21.5884548,13.0471899 21.5711427,12.9291151 21.5387935,12.8175983 L23.9664214,11.3599564 C24.1222211,11.5314395 24.3244795,11.6560724 24.552711,11.7118307 L24.552711,19.8748706 C24.552711,19.8978287 24.5376837,19.9184469 24.5158116,19.9245329 C24.5117106,19.9254769 24.5076096,19.9259389 24.5035086,19.9259389 C24.4862062,19.9259389 24.4698021,19.9165688 24.460692,19.9006407 L21.2185429,14.0601908 Z M24.8228511,21.6080204 C24.8082729,21.6080204 24.7937045,21.6070864 24.7795756,21.6056804 C24.7768415,21.6056804 24.7745665,21.6052184 24.7718324,21.6052184 C24.7599883,21.6038124 24.7476852,21.6019243 24.7358411,21.5995944 C24.730832,21.5981783 24.725364,21.5972544 24.7208138,21.5963103 C24.7112448,21.5939603 24.7016757,21.5916303 24.6921067,21.5883463 C24.6848225,21.5860063 24.6770696,21.5841282 24.6697854,21.5813263 L24.6661433,21.5799102 C24.6511062,21.5742962 24.6365378,21.5677281 24.6219597,21.5611701 C24.4611509,21.4819815 24.3490856,21.3123664 24.3490856,21.1155851 C24.3490856,20.8438232 24.5618212,20.6226777 24.8228511,20.6226777 C24.9235311,20.6226777 25.0169172,20.6559299 25.09345,20.7116983 C25.1016521,20.7173123 25.1093952,20.7238804 25.1171383,20.7299664 C25.1226063,20.7346464 25.1276154,20.7393465 25.1326343,20.7440265 C25.1376336,20.7482445 25.1421936,20.7524525 25.1467535,20.7566706 C25.1535788,20.7637006 25.1604138,20.7707407 25.1672489,20.7777607 C25.171799,20.7833848 25.1768179,20.7885368 25.1813681,20.7941609 C25.1854691,20.7988509 25.189121,20.8035209 25.1927631,20.8086829 C25.1995883,20.817591 25.2064234,20.8264891 25.2123503,20.8358591 C25.2155335,20.8400772 25.2178086,20.8447572 25.2210015,20.8489852 C25.2255517,20.8569493 25.2301116,20.8644413 25.2346716,20.8724054 C25.2364877,20.8766234 25.2387726,20.8803694 25.2405888,20.8836535 C25.2465157,20.8949016 25.2515248,20.9066116 25.2565339,20.9178497 C25.2583599,20.9220777 25.2597269,20.9258238 25.2615528,20.9300418 C25.266103,20.9422239 25.2706532,20.954406 25.2747542,20.9670601 C25.2752131,20.9694001 25.275672,20.972202 25.2765801,20.9745521 C25.2802222,20.9862622 25.2829562,20.9984442 25.2856902,21.0106364 C25.2861394,21.0134383 25.2870572,21.0162504 25.2875162,21.0190624 C25.2902404,21.0331225 25.2920663,21.0471726 25.2934333,21.0612327 C25.2938923,21.0645167 25.2938923,21.0673187 25.2943414,21.0706027 C25.2957182,21.0855968 25.2966263,21.1001189 25.2966263,21.1155851 C25.2966263,21.3873369 25.0838908,21.6080204 24.8228511,21.6080204 L24.8228511,21.6080204 Z" id="Fill-1" fill="#FFFFFF"></path>
    </g>
</svg>