<?xml version="1.0" encoding="UTF-8"?>
<svg width="32px" height="32px" viewBox="0 0 32 32" version="1.1" xmlns="http://www.w3.org/2000/svg" xmlns:xlink="http://www.w3.org/1999/xlink">
    <!-- Generator: Sketch 52.2 (67145) - http://www.bohemiancoding.com/sketch -->
    <title>svg/color/tvnd</title>
    <desc>Created with Sketch.</desc>
    <g id="color/tvnd" stroke="none" stroke-width="1" fill="none" fill-rule="evenodd">
        <circle id="Oval" fill="#289188" fill-rule="nonzero" cx="16" cy="16" r="16"></circle>
        <path d="M13.2117947,7.35058337 C13.5770851,7.35058337 13.8140071,7.586588 13.8140071,7.95034949 C13.8140071,8.55207263 13.8140682,9.15379578 13.8140071,9.75558008 C13.8139459,10.0992209 13.5720702,10.3397512 13.22635,10.3398735 C12.8887637,10.3399958 12.5512386,10.3395066 12.2136522,10.340057 C11.8568015,10.3405462 11.6198183,10.5771013 11.6198183,10.9323008 C11.619696,12.1578247 11.6197572,13.3833487 11.6198183,14.6088726 C11.6198183,14.7039717 11.6199407,14.7040328 11.7138777,14.704094 C11.9242576,14.7041551 12.1346375,14.7036659 12.3450173,14.7042163 C12.6241376,14.7048279 12.8306646,14.9037714 12.8321324,15.1820966 C12.8348844,15.7202166 12.8348233,16.2583976 12.8321324,16.7965787 C12.8306646,17.0771056 12.6275624,17.2724409 12.3463628,17.2726855 C12.1335366,17.272869 11.9206493,17.275621 11.7079455,17.2710343 C11.6373704,17.2695665 11.6179836,17.2894425 11.6182283,17.3603846 C11.6206134,18.2360908 11.6197572,19.111797 11.6197572,19.9875033 C11.6197572,20.3592763 11.6195126,20.7311105 11.6198183,21.1029447 C11.6201853,21.4412038 11.8632841,21.6844861 12.2033167,21.6855257 C12.550627,21.6865654 12.8979984,21.6854034 13.2453087,21.6858927 C13.5708471,21.6862596 13.8138236,21.9307651 13.8139459,22.2576489 C13.8141294,22.8716035 13.8141905,23.4856192 13.8139459,24.0995737 C13.8138236,24.4257848 13.5703578,24.6700456 13.2439632,24.6701068 C11.7029306,24.6704126 10.1618369,24.6704126 8.62080426,24.6701679 C8.29489892,24.6701068 8.05302322,24.4265187 8.0529009,24.0981059 C8.05265628,22.9778331 8.05277859,21.8574991 8.05277859,20.7371651 C8.05277859,19.6144459 8.05283975,18.4916045 8.05277859,17.3688854 C8.05277859,17.2728078 8.05265628,17.2727467 7.95847459,17.2727467 C7.79218886,17.2726855 7.62584198,17.2735417 7.4594951,17.272502 C7.21150371,17.2708508 7.00308085,17.069094 7.00191887,16.8215919 C6.99928912,16.2687943 6.99947259,15.7159356 7.00179656,15.163138 C7.00289738,14.9098259 7.21162602,14.7077022 7.46976947,14.7045221 C7.64345518,14.7023816 7.8171409,14.7026262 7.99076545,14.7049502 C8.03840671,14.7056229 8.05828271,14.6908841 8.05320669,14.6426924 C8.0506381,14.6185354 8.05277859,14.593828 8.05277859,14.5693652 C8.05277859,12.3654525 8.05589759,10.1615399 8.04959843,7.95762717 C8.04861992,7.61588218 8.30315511,7.34648585 8.66202404,7.34795362 C10.178655,7.35413047 11.6952248,7.35052221 13.2117947,7.35058337 Z M26.1904596,15.1413049 C26.2209769,16.1487432 26.1620216,17.1496377 25.9815475,18.141848 C25.7280519,19.5358593 25.2493154,20.8408872 24.4262653,22.0051931 C23.5473177,23.2485749 22.3808714,24.0811654 20.8962255,24.4522658 C20.2763387,24.6072375 19.6460553,24.6735316 19.0077603,24.6714522 C18.9529637,24.6712688 18.9374298,24.6567746 18.9376744,24.601611 C18.9399373,24.1906975 18.9388976,23.7797229 18.9388976,23.3688094 C18.9388976,22.9652347 18.9381637,22.5615989 18.9391422,22.1580243 C18.9398761,21.890218 19.1135007,21.6580663 19.3754358,21.6027193 C20.4262344,21.3808419 21.1519227,20.7463386 21.6555501,19.82452 C22.0123397,19.1715474 22.2176435,18.4686706 22.3411194,17.7390683 C22.4622101,17.0230429 22.4986597,16.3008406 22.484777,15.5762531 C22.4684481,14.7236642 22.3909011,13.8780472 22.1520221,13.0544466 C21.9893447,12.493454 21.7551136,11.9676266 21.3875604,11.5076041 C20.9554254,10.9666098 20.3897237,10.6408268 19.7247643,10.4756419 C19.6276471,10.4514849 19.5293067,10.4316701 19.4307829,10.4143015 C19.1306858,10.3614619 18.9390199,10.135487 18.9389587,9.83019155 C18.9387753,9.03276619 18.9398761,8.23534084 18.9372464,7.43797664 C18.9370017,7.36721806 18.9549819,7.34905444 19.0259851,7.34887097 C19.8288534,7.34636354 20.6218143,7.42005765 21.3981405,7.63655323 C22.9039467,8.05645678 24.0595683,8.9398688 24.8823738,10.2646505 C25.4118706,11.1173617 25.7489676,12.044929 25.9519475,13.0241128 C26.096706,13.7224028 26.1689323,14.4287654 26.1904596,15.1413049 Z M18.1362127,6.42148712 C18.137497,6.45078129 18.1366408,6.48019778 18.1366408,6.50955311 C18.1366408,9.67210086 18.1366408,12.8346486 18.1366408,15.9972575 C18.1366408,19.1744829 18.1366408,22.3517695 18.1365797,25.5289949 C18.1365797,25.7618193 18.0167121,25.9337927 17.8043752,25.9769083 C17.651177,26.0080372 17.4917409,26.0079149 17.3381758,25.9751959 C17.1531761,25.9357497 17.0249911,25.7697086 17.014411,25.5779204 C17.0131267,25.55358 17.0136159,25.529056 17.0136159,25.5045933 C17.0136159,19.1672052 17.0136159,12.8298784 17.0136159,6.49249033 C17.0136159,6.24559976 17.1273678,6.0688562 17.3405609,6.02470088 C17.5003029,5.99167614 17.6678729,5.99069762 17.8280429,6.02824799 C18.0064377,6.07014049 18.1280789,6.23581464 18.1362127,6.42148712 Z M15.4098975,6.02274386 C15.6036426,6.05937687 15.7332342,6.23116672 15.738983,6.42894827 C15.7394722,6.44607221 15.7391664,6.46319615 15.7391664,6.4803201 C15.7391664,12.8274932 15.7391664,19.1746052 15.7391664,25.5217784 C15.7391664,25.7629813 15.6153848,25.9391133 15.4000512,25.9792323 C15.2536415,26.0065694 15.1014218,26.0067529 14.954951,25.9785595 C14.754295,25.9399084 14.620239,25.7676293 14.6192605,25.5630593 C14.6176093,25.2230879 14.6187713,24.8831164 14.6187713,24.543145 C14.6187713,21.6960447 14.6187713,18.8490057 14.6187713,16.0019666 C14.6187713,12.82468 14.6187713,9.64745461 14.6188324,6.47016804 C14.6188324,6.2407072 14.7379661,6.06653223 14.9433923,6.023967 C15.0965904,5.99216539 15.256577,5.99381663 15.4098975,6.02274386 Z" id="Combined-Shape" fill="#FFFFFF"></path>
    </g>
</svg>