<?xml version="1.0" encoding="UTF-8"?>
<svg width="32px" height="32px" viewBox="0 0 32 32" version="1.1" xmlns="http://www.w3.org/2000/svg" xmlns:xlink="http://www.w3.org/1999/xlink">
    <!-- Generator: Sketch 51.1 (57501) - http://www.bohemiancoding.com/sketch -->
    <title>svg/color/vex</title>
    <desc>Created with Sketch.</desc>
    <defs></defs>
    <g id="color/vex" stroke="none" stroke-width="1" fill="none" fill-rule="evenodd">
        <circle id="Oval" fill="#434244" fill-rule="nonzero" cx="16" cy="16" r="16"></circle>
        <path d="M7,7.86304206 L7,7 C10.2381374,7 13.628695,7 16.9352564,7 C16.7353657,7.09354054 16.570925,7.24457574 16.4970458,7.32590239 C15.3867732,8.54639789 15.1606673,9.89647982 15.8440495,11.4139814 C16.8017973,13.5400923 17.7163497,15.6861626 18.6863115,17.8069113 C18.7965344,18.0479122 18.991063,18.5188918 18.991063,18.5188918 L16.0987538,25 L10.0957748,11.6335336 C9.69509955,10.7457922 9.20535227,9.89826722 8.75075716,9.03525148 C8.39025661,8.3506556 7.91448159,7.8375011 7,7.86304554 Z M24.3032124,7.03842908 L25.1692071,7.0383499 L25.1692071,7.93749069 L24.5611936,7.93749069 C23.9978651,8.02030684 23.6940072,8.53060921 23.4455588,8.98192741 L19.5949059,17.0856958 C19.4003773,16.6668487 19.2180627,16.3025173 19.092051,16.0224914 C18.3782831,14.4370687 17.6636215,12.8522417 16.9561094,11.2641378 C16.7219602,10.7392384 16.4467008,9.95993248 16.5804578,9.36026017 C16.8363537,8.21423961 17.6636215,7.49689688 18.7476789,7.18439998 C19.1078397,7.08043295 19.499578,7.05094087 19.8773149,7.04706817 C21.3525148,7.03217318 22.8280125,7.04081227 24.3032124,7.04111017 L24.3032124,7.03842908 Z" id="Combined-Shape" fill="#FFFFFF"></path>
    </g>
</svg>