<?xml version="1.0" encoding="UTF-8"?>
<svg width="32px" height="32px" viewBox="0 0 32 32" version="1.1" xmlns="http://www.w3.org/2000/svg" xmlns:xlink="http://www.w3.org/1999/xlink">
    <!-- Generator: Sketch 52.5 (67469) - http://www.bohemiancoding.com/sketch -->
    <title>svg/color/xdce</title>
    <desc>Created with Sketch.</desc>
    <g id="color/xdce" stroke="none" stroke-width="1" fill="none" fill-rule="evenodd">
        <circle id="Oval" fill="#254A81" fill-rule="nonzero" cx="16" cy="16" r="16"></circle>
        <path d="M15.9540224,14.9219032 L17.6153773,12.0661101 L19.2007225,12.0661101 L16.8118462,15.986039 L19.2550152,19.9711191 L17.6533822,19.9711191 L15.9540224,17.0718919 L14.2492334,19.9711191 L12.6530296,19.9711191 L15.1016279,15.986039 L12.7073223,12.0661101 L14.2926675,12.0661101 L15.9540224,14.9219032 Z M15.9779629,26.0072202 C21.0036081,26.0072202 25.1639883,22.3025805 25.8772118,17.4751928 L23.3145988,16 L25.873848,14.5022183 C25.151003,9.68586752 20.9957663,5.99277978 15.9779629,5.99277978 C10.9621272,5.99277978 6.80818199,9.68297146 6.08292973,14.4965523 L8.40573089,16 L6.07591047,17.4560903 C6.78096687,22.2928039 10.9456907,26.0072202 15.9779629,26.0072202 Z M6.5559837,15.9853318 L5.00580774,14.9819707 L5.10123011,14.3486417 C5.90674142,9.00237249 10.5179772,5 15.9779629,5 C21.4402721,5 26.0528229,9.00571385 26.8556323,14.3548706 L26.9553891,15.0195553 L25.2922211,15.9929122 L26.9580851,16.9518828 L26.8593303,17.6202961 C26.0673186,22.9809548 21.4495347,27 15.9779629,27 C10.4985593,27 5.87636231,22.9696686 5.0935135,17.599296 L5,16.9577899 L6.5559837,15.9853318 Z" id="Combined-Shape" fill="#FFFFFF"></path>
    </g>
</svg>