<?xml version="1.0" encoding="UTF-8"?>
<svg width="32px" height="32px" viewBox="0 0 32 32" version="1.1" xmlns="http://www.w3.org/2000/svg" xmlns:xlink="http://www.w3.org/1999/xlink">
    <!-- Generator: Sketch 54.1 (76490) - https://sketchapp.com -->
    <title>svg/color/xlm</title>
    <desc>Created with Sketch.</desc>
    <g id="color/xlm" stroke="none" stroke-width="1" fill="none" fill-rule="evenodd">
        <circle id="Oval" fill="#1B1A19" fill-rule="nonzero" cx="16" cy="16" r="16"></circle>
        <path d="M24.6071336,8.65633949 L28,6.92788336 L28,9 L8.21999479,19.0778443 C8.22077584,19.0786254 8.22077584,19.0801875 8.22155689,19.0809685 L6.56964332,19.9229367 C6.56964332,19.9213746 6.56886228,19.9205936 6.56808123,19.9198125 L4,21.2280656 L4,19.155949 L4.8732101,18.7115335 C5.53631867,18.3733403 5.93152825,17.6696173 5.87529289,16.926842 C5.85576673,16.6706587 5.84639417,16.4129133 5.84639417,16.1536058 C5.84639417,14.7836501 6.1150742,13.4535277 6.6446238,12.200729 C7.15620932,10.9916688 7.88804999,9.90601406 8.81983858,8.97422546 C9.75240823,8.04165582 10.838063,7.30981515 12.0471231,6.79822963 C13.2999219,6.26868003 14.6300443,6 16,6 C17.3707368,6 18.7000781,6.26868003 19.9520958,6.79822963 C20.6683155,7.10127571 21.3407967,7.4816454 21.9640719,7.93543348 L21.7172611,8.06118198 L20.0630044,8.90393127 C18.8180161,8.20333247 17.4051028,7.83545952 15.9359542,7.84639417 C13.7513668,7.86279615 11.6698776,8.7352252 10.1257485,10.2793543 C8.55662588,11.848477 7.69200729,13.9346524 7.69200729,16.1536058 C7.69200729,16.5199167 7.71621973,16.8823223 7.76308253,17.2392606 L24.6071336,8.65633949 Z M28,11.0713356 L28,13.1434522 L27.1267899,13.5886488 C26.4629003,13.926842 26.0676907,14.630565 26.1239261,15.3741213 C26.1434522,15.6318667 26.1536058,15.8919552 26.1536058,16.1536058 C26.1536058,17.5243426 25.8849258,18.8536839 25.3553762,20.1064827 C24.8437907,21.3155428 24.11195,22.4011976 23.1801614,23.3337672 C22.2475918,24.2655558 21.161937,24.9973965 19.9528769,25.508982 C18.7000781,26.0385316 17.3699557,26.3072117 16,26.3072117 C14.6292632,26.3072117 13.2999219,26.0385316 12.0479042,25.508982 C11.3285603,25.2051549 10.6545171,24.8224421 10.0288987,24.3670919 L11.9284041,23.3993752 C13.1741734,24.1015361 14.5878677,24.4709711 16.0593595,24.4608175 C18.2447279,24.4459776 20.3285603,23.5735486 21.8742515,22.0278573 C23.4433741,20.4587347 24.3079927,18.3725592 24.3079927,16.1536058 C24.3079927,15.7849518 24.2829992,15.4202031 24.2361364,15.0609216 L4,25.3722989 L4,23.3001822 L28,11.0713356 Z" id="Combined-Shape" fill="#FFFFFF"></path>
    </g>
</svg>