<?xml version="1.0" encoding="utf-8"?>
<!DOCTYPE svg PUBLIC "-//W3C//DTD SVG 1.1 Tiny//EN" "http://www.w3.org/Graphics/SVG/1.1/DTD/svg11-tiny.dtd">
<svg version="1.1" baseProfile="tiny" id="Layer_1" xmlns="http://www.w3.org/2000/svg" xmlns:xlink="http://www.w3.org/1999/xlink"
	 x="0px" y="0px" width="640px" height="640px" viewBox="0 0 640 640" xml:space="preserve">
<path fill="#0899CD" d="M638.264,319.75c0,87.813-31.053,162.684-93.16,224.604c-61.92,62.107-136.791,93.16-224.604,93.16
	c-87.814,0-162.774-31.053-224.884-93.16c-61.92-61.92-92.88-136.791-92.88-224.604c0-87.814,30.96-162.774,92.88-224.884
	c62.11-61.92,137.069-92.88,224.884-92.88c87.813,0,162.684,30.96,224.604,92.88C607.211,156.976,638.264,231.936,638.264,319.75z"
	/>
<g>
	<path fill="#FFFFFF" d="M619.403,304.13L487.966,76.291V296.67c3.293,1.229,6.294,3.199,9.005,5.912
		c2.715,2.71,4.685,5.715,5.914,9.005h112.018C615.896,308.92,617.396,306.436,619.403,304.13z M638.264,319.75
		c0,8.466-0.278,16.811-0.846,25.051c-1.204-0.055-2.375-0.197-3.519-0.424L498.378,579.112c0.83,0.956,1.577,1.939,2.253,2.952
		c-13.688,9.664-27.896,18.063-42.641,25.192c-0.728-1.215-1.336-2.484-1.831-3.799H184.838c-0.498,1.33-1.107,2.601-1.828,3.799
		c-14.746-7.075-28.959-15.425-42.642-25.051c0.651-1.083,1.402-2.111,2.251-3.095L7.101,344.377
		c-1.141,0.23-2.314,0.369-3.518,0.424c-0.563-8.24-0.847-16.585-0.847-25.051c0-8.271,0.283-16.434,0.847-24.487
		c1.201,0.052,2.372,0.192,3.518,0.423L142.62,60.671c-0.929-1.075-1.726-2.199-2.391-3.378
		c13.666-9.601,27.879-17.951,42.639-25.051c0.781,1.289,1.435,2.649,1.971,4.082H456.16c0.533-1.421,1.188-2.781,1.974-4.082
		c14.754,7.127,28.97,15.524,42.643,25.191c-0.645,1.063-1.396,2.094-2.255,3.098l135.38,235.155
		c1.153-0.231,2.331-0.371,3.519-0.423C637.984,303.319,638.264,311.479,638.264,319.75z M614.901,328.475H502.885
		c-1.229,3.293-3.199,6.295-5.914,9.01c-2.711,2.711-5.712,4.685-9.005,5.91V563.49l131.438-227.557
		C617.396,333.625,615.896,331.141,614.901,328.475z M26.099,311.587h112.019c1.229-3.29,3.197-6.294,5.91-9.005
		c2.713-2.713,5.714-4.684,9.007-5.912V76.291L21.594,304.13C23.603,306.436,25.104,308.923,26.099,311.587z M184.558,53.774
		l176.61,152.97c3.688-2.158,7.768-3.235,12.248-3.235c1.506,0,2.957,0.14,4.359,0.42L460.667,60.67
		c-1.99-2.301-3.491-4.785-4.508-7.46H184.838C184.77,53.396,184.676,53.582,184.558,53.774z M184.838,311.587h112.299
		c0.94-2.763,2.392-5.344,4.365-7.74L169.921,76.291V296.67c3.293,1.229,6.294,3.199,9.007,5.912
		C181.642,305.292,183.609,308.297,184.838,311.587z M396.636,237.144l70.782,61.216c1.182-0.67,2.396-1.234,3.66-1.69V76.291
		l-78.664,136.083c3.843,4.574,5.767,9.875,5.767,15.903C398.181,231.43,397.664,234.387,396.636,237.144z M350.333,219.41
		L193.845,84.031l122.29,211.372c1.413-0.28,2.87-0.42,4.365-0.42c1.501,0,2.957,0.14,4.365,0.42l29.688-51.223
		c-3.94-4.538-5.909-9.837-5.909-15.903C348.646,225.091,349.206,222.134,350.333,219.41z M344,311.587h112.159
		c0.115-0.187,0.209-0.374,0.286-0.561l-70.787-61.216c-3.685,2.157-7.769,3.235-12.242,3.235c-1.507,0-2.958-0.14-4.365-0.42
		l-29.553,51.223C341.499,306.229,343.006,308.811,344,311.587z M462.074,337.484c-2.716-2.717-4.685-5.719-5.915-9.012H343.72
		c-0.962,2.523-2.369,4.865-4.222,7.037l131.58,227.979V343.395C467.786,342.168,464.784,340.193,462.074,337.484z M316.421,344.234
		l-29.838,51.65c3.848,4.568,5.772,9.873,5.772,15.897c0,3.156-0.517,6.106-1.55,8.867l156.351,135.241l-122.29-211.796
		c-1.396,0.28-2.854,0.425-4.365,0.425C319.082,344.521,317.718,344.421,316.421,344.234z M456.445,586.006L279.832,433.316
		c-3.683,2.159-7.762,3.236-12.248,3.236c-1.506,0-2.957-0.143-4.359-0.423l-82.749,142.981c1.938,2.298,3.392,4.781,4.362,7.46
		h271.321C456.274,586.38,456.368,586.192,456.445,586.006z M271.949,387.441l29.695-51.65c-1.935-2.254-3.392-4.695-4.365-7.316
		H184.838c-0.068,0.182-0.162,0.367-0.28,0.565l70.784,61.217c3.683-2.159,7.762-3.237,12.242-3.237
		C269.085,387.02,270.536,387.156,271.949,387.441z M244.507,402.922l-70.927-61.216c-1.173,0.67-2.394,1.231-3.658,1.688v220.237
		l78.808-135.944c-3.942-4.534-5.91-9.835-5.91-15.903C242.819,408.606,243.38,405.648,244.507,402.922z M144.027,337.484
		c-2.713-2.717-4.681-5.719-5.91-9.012H26.099c-0.995,2.668-2.496,5.151-4.505,7.461l131.44,227.556V343.395
		C149.741,342.168,146.74,340.193,144.027,337.484z"/>
</g>
</svg>
